<svg width="23" height="20" viewBox="0 0 23 20" fill="none" xmlns="http://www.w3.org/2000/svg">
<path d="M5.17274 10.26C5.17274 10.2802 5.17274 10.3004 5.17274 10.3188L5.99108 9.49965C6.10508 9.38534 6.24056 9.29451 6.38979 9.23237C6.53901 9.17022 6.69906 9.13797 6.8608 9.13746C7.02253 9.13695 7.18278 9.16818 7.3324 9.22938C7.48202 9.29058 7.61808 9.38055 7.73281 9.49414C7.84753 9.60774 7.93868 9.74274 8.00105 9.89143C8.06342 10.0401 8.09578 10.1996 8.0963 10.3608C8.09681 10.5219 8.06546 10.6816 8.00404 10.8307C7.94262 10.9798 7.85234 11.1154 7.73834 11.2297L4.9313 14.0488C4.70481 14.2751 4.39873 14.4045 4.07802 14.4097C3.75731 14.4148 3.44721 14.2952 3.21353 14.0763L0.34935 11.5676C0.132887 11.3462 0.00826303 11.0516 0.000396382 10.7426C-0.00747027 10.4336 0.102 10.133 0.30692 9.90101C0.511839 9.66898 0.797104 9.52257 1.10568 9.49106C1.41425 9.45955 1.72339 9.54526 1.97128 9.73106L2.70852 10.3812C2.61496 8.37894 3.12877 6.39503 4.183 4.68792C5.22892 2.99532 6.77374 1.66574 8.60644 0.880776C9.25994 0.601637 9.93887 0.385769 10.6338 0.236151C12.8593 -0.263473 15.1904 0.0352256 17.2166 1.07966C19.2428 2.1241 20.8343 3.84732 21.7109 5.94595C21.9908 6.59653 22.2051 7.27327 22.3504 7.96614C22.7043 9.60873 22.6211 11.315 22.109 12.9156C21.5889 14.509 20.666 15.9421 19.4291 17.0772C18.248 18.1881 16.8248 19.0115 15.2711 19.4831C14.0226 19.8558 12.7075 19.9521 11.4178 19.7652C10.1281 19.5784 8.89493 19.1129 7.80469 18.4014C7.5307 18.2243 7.33853 17.946 7.27044 17.6278C7.20234 17.3096 7.26391 16.9774 7.4416 16.7044C7.61928 16.4314 7.89853 16.2399 8.21791 16.172C8.53729 16.1042 8.87064 16.1655 9.14462 16.3426C9.46714 16.5563 9.80825 16.7407 10.1639 16.8936C10.5033 17.0378 10.8549 17.1521 11.2144 17.2352C12.3239 17.4948 13.4823 17.4606 14.5744 17.136C15.7661 16.7695 16.8562 16.1327 17.7593 15.2756C18.6914 14.4224 19.3855 13.3428 19.7738 12.1424C20.1576 10.9504 20.2211 9.67885 19.9581 8.45466C19.8441 7.91972 19.6787 7.39695 19.4641 6.89361C18.8113 5.32009 17.6197 4.02816 16.1012 3.24738C14.5826 2.46661 12.8355 2.24756 11.1702 2.62916C10.6314 2.7433 10.1054 2.91064 9.59987 3.1287C8.22746 3.70881 7.07002 4.69975 6.28782 5.96432C5.49093 7.25183 5.10231 8.74892 5.17274 10.26ZM11.1407 6.24163C11.1407 5.94403 11.2593 5.65861 11.4705 5.44817C11.6817 5.23773 11.9682 5.11951 12.2668 5.11951C12.5655 5.11951 12.8519 5.23773 13.0631 5.44817C13.2743 5.65861 13.393 5.94403 13.393 6.24163V9.73106L16.1373 11.2499C16.3979 11.3945 16.5901 11.6364 16.6717 11.9223C16.7532 12.2081 16.7175 12.5146 16.5723 12.7742C16.4271 13.0338 16.1844 13.2253 15.8975 13.3066C15.6106 13.3879 15.3031 13.3523 15.0425 13.2076L11.8042 11.4133C11.6065 11.3246 11.4387 11.1808 11.321 10.9994C11.2033 10.8179 11.1407 10.6064 11.1407 10.3904V6.24163Z" fill="#404040"/>
</svg>
