<svg width="22" height="20" viewBox="0 0 22 20" fill="none" xmlns="http://www.w3.org/2000/svg">
<path fill-rule="evenodd" clip-rule="evenodd" d="M20.1621 2.024H1.87605L1.87605 4.63268L20.1621 4.63268L20.1621 2.024ZM1.87605 0.192871C0.864745 0.192871 0.0449219 1.01269 0.0449219 2.024V4.63268C0.0449219 5.64399 0.864744 6.46381 1.87605 6.46381H20.1621C21.1734 6.46381 21.9932 5.64399 21.9932 4.63268V2.024C21.9932 1.01269 21.1734 0.192871 20.1621 0.192871H1.87605Z" fill="#404040"/>
<path fill-rule="evenodd" clip-rule="evenodd" d="M17.0269 6.72712H5.01179V16.2589C5.01179 16.7646 5.4217 17.1745 5.92735 17.1745H16.1113C16.617 17.1745 17.0269 16.7646 17.0269 16.2589V6.72712ZM3.18066 4.896V16.2589C3.18066 17.7759 4.4104 19.0056 5.92735 19.0056H16.1113C17.6283 19.0056 18.858 17.7759 18.858 16.2589V4.896H3.18066Z" fill="#404040"/>
<path d="M8.10742 10.0472C8.10742 9.55245 8.50851 9.15137 9.00327 9.15137H13.4825C13.9773 9.15137 14.3784 9.55245 14.3784 10.0472C14.3784 10.542 13.9773 10.9431 13.4825 10.9431H9.00327C8.50851 10.9431 8.10742 10.542 8.10742 10.0472Z" fill="#404040"/>
<path fill-rule="evenodd" clip-rule="evenodd" d="M9.00327 9.15137C8.50851 9.15137 8.10742 9.55245 8.10742 10.0472C8.10742 10.542 8.50851 10.9431 9.00327 10.9431H13.4825C13.9773 10.9431 14.3784 10.542 14.3784 10.0472C14.3784 9.55245 13.9773 9.15137 13.4825 9.15137H9.00327Z" fill="#404040"/>
</svg>
