<svg width="23" height="21" viewBox="0 0 23 21" fill="none" xmlns="http://www.w3.org/2000/svg">
<path fill-rule="evenodd" clip-rule="evenodd" d="M7.9417 0.920599C9.07497 0.652212 10.2387 0.532353 11.4033 0.56406L11.4258 0.564304C14.4318 0.662142 17.1469 1.72236 19.0961 3.38401C21.0916 5.07575 22.3008 7.40179 22.2249 9.96261L22.2248 9.96465C22.1737 11.4645 21.6885 12.9178 20.8277 14.1505C19.9156 15.458 18.7007 16.5284 17.2857 17.272C15.7033 18.1303 13.9604 18.6568 12.1649 18.8189L12.1634 18.819C10.5594 18.9584 8.94465 18.7538 7.42819 18.2198L0.844715 20.1767L2.73409 15.4491C2.04659 14.8302 1.45902 14.108 0.993548 13.3089C0.204426 11.9501 -0.128141 10.3766 0.0444864 8.81697L0.0448863 8.81347C0.227054 7.27497 0.845142 5.81973 1.8269 4.61681C2.64148 3.6111 3.64359 2.77102 4.77824 2.14245C5.76961 1.58927 6.83462 1.17794 7.9417 0.920599ZM8.39451 2.82533C9.29045 2.61268 10.2088 2.50864 11.1294 2.5153L11.1341 2.52233L11.3711 2.52939C13.9302 2.60569 16.2084 3.50496 17.8203 4.88155C19.3978 6.2259 20.3146 8.01005 20.2594 9.90969C20.2184 11.0333 19.8539 12.1219 19.2088 13.0466C18.4735 14.086 17.4985 14.9363 16.3649 15.5264L16.3571 15.5307C15.0122 16.2644 13.5291 16.7148 12.0007 16.8536C10.5792 16.9797 9.14767 16.7775 7.8181 16.263L7.49543 16.1413L4.17563 17.1333L5.0957 14.832L4.5187 14.3794L4.51446 14.3762C3.78218 13.8155 3.16578 13.12 2.69883 12.328C2.11972 11.33 1.8755 10.1753 2.00115 9.03081C2.14269 7.86443 2.61362 6.76123 3.35998 5.84869L3.36162 5.84666C4.01695 5.03609 4.82452 4.35787 5.73853 3.85022C6.56985 3.38611 7.46327 3.04123 8.39217 2.82588L8.39451 2.82533ZM12.1395 8.09689C11.8417 7.89973 11.4919 7.79494 11.1345 7.79539C10.6559 7.796 10.1965 7.9852 9.85727 8.32244C9.51797 8.6598 9.32679 9.11779 9.32679 9.59599C9.32679 9.95294 9.43343 10.3016 9.63284 10.5978C9.83222 10.894 10.1153 11.1244 10.4458 11.2602C10.7762 11.396 11.1397 11.4313 11.4902 11.3619C11.8408 11.2925 12.1632 11.1213 12.4164 10.8695C12.6697 10.6177 12.8425 10.2965 12.9123 9.94646C12.9821 9.59638 12.9458 9.23363 12.808 8.90426C12.6703 8.57492 12.4375 8.29408 12.1395 8.09689ZM16.5957 8.09689C16.2978 7.89973 15.9481 7.79494 15.5907 7.79539C15.1121 7.796 14.6526 7.9852 14.3134 8.32244C13.9741 8.6598 13.7829 9.11779 13.7829 9.59599C13.7829 9.95294 13.8896 10.3016 14.089 10.5978C14.2884 10.894 14.5714 11.1244 14.9019 11.2602C15.2324 11.396 15.5958 11.4313 15.9464 11.3619C16.2969 11.2925 16.6193 11.1213 16.8726 10.8695C17.1259 10.6177 17.2986 10.2965 17.3685 9.94646C17.4383 9.59638 17.402 9.23364 17.2642 8.90426C17.1264 8.57492 16.8936 8.29408 16.5957 8.09689ZM5.40245 8.32213C5.7419 7.98506 6.20144 7.796 6.68011 7.79539C7.03739 7.79539 7.38749 7.90058 7.68507 8.09802C7.98268 8.29548 8.21514 8.57648 8.35254 8.90587C8.48995 9.23528 8.52596 9.59795 8.45586 9.94788C8.38577 10.2978 8.21284 10.6187 7.95946 10.8703C7.70611 11.1219 7.38371 11.2929 7.03322 11.3621C6.68274 11.4313 6.31942 11.3958 5.98908 11.26C5.6587 11.1241 5.3758 10.8937 5.17652 10.5976C4.97722 10.3014 4.87064 9.95224 4.87064 9.59539C4.87125 9.11714 5.06288 8.65931 5.40245 8.32213Z" fill="#404040"/>
</svg>
