<svg width="19" height="24" viewBox="0 0 19 24" fill="none" xmlns="http://www.w3.org/2000/svg">
<path d="M18.3931 9.21411C18.3931 9.09972 18.3931 8.98532 18.2787 8.87093V8.75653C18.2787 8.64214 18.1643 8.52774 18.0499 8.41335L10.0422 0.405686C9.92783 0.29129 9.81343 0.29129 9.69904 0.176895H9.58464C9.47025 0.176895 9.35585 0.176895 9.24146 0.0625C9.24146 0.0625 9.24146 0.0625 9.12706 0.0625H4.66565C2.14896 0.176895 0.0898438 2.23601 0.0898438 4.7527V18.4801C0.0898438 20.9968 2.14896 23.0559 4.66565 23.0559H13.8173C16.334 23.0559 18.3931 20.9968 18.3931 18.4801V9.21411C18.3931 9.32851 18.3931 9.32851 18.3931 9.21411ZM10.3854 4.06633L14.5036 8.18456H12.6733C11.415 8.18456 10.3854 7.155 10.3854 5.89665V4.06633ZM16.1052 18.4801C16.1052 19.7385 15.0756 20.768 13.8173 20.768H4.66565C3.4073 20.768 2.37775 19.7385 2.37775 18.4801V4.7527C2.37775 3.49435 3.4073 2.4648 4.66565 2.4648H8.09751V5.89665C8.09751 8.41335 10.1566 10.4725 12.6733 10.4725H16.1052V18.4801Z" fill="#404040"/>
<path d="M5.80899 12.7606H8.09689C8.78327 12.7606 9.24085 12.303 9.24085 11.6166C9.24085 10.9302 8.78327 10.4727 8.09689 10.4727H5.80899C5.12262 10.4727 4.66504 10.9302 4.66504 11.6166C4.66504 12.303 5.12262 12.7606 5.80899 12.7606Z" fill="#404040"/>
<path d="M5.80899 15.0483C5.12262 15.0483 4.66504 15.5059 4.66504 16.1923C4.66504 16.8787 5.12262 17.3362 5.80899 17.3362H12.6727C13.3591 17.3362 13.8167 16.8787 13.8167 16.1923C13.8167 15.5059 13.3591 15.0483 12.6727 15.0483H5.80899Z" fill="#404040"/>
</svg>
