<svg width="22" height="19" viewBox="0 0 22 19" fill="none" xmlns="http://www.w3.org/2000/svg">
<path fill-rule="evenodd" clip-rule="evenodd" d="M0.0449219 9.41777C0.0449219 8.84726 0.507413 8.38477 1.07792 8.38477H20.705C21.2755 8.38477 21.738 8.84726 21.738 9.41777C21.738 9.98828 21.2755 10.4508 20.705 10.4508H1.07792C0.507413 10.4508 0.0449219 9.98828 0.0449219 9.41777Z" fill="#404040"/>
<path fill-rule="evenodd" clip-rule="evenodd" d="M6.22021 0.533691L15.5627 0.533692C16.12 0.533987 16.6668 0.68975 17.1404 0.983467C17.6135 1.27684 17.9955 1.69622 18.2435 2.19455C18.2438 2.19514 18.2441 2.19572 18.2444 2.19631L21.6287 8.95501C21.7006 9.09859 21.738 9.25695 21.738 9.41752V15.3056C21.738 16.1001 21.4224 16.8621 20.8606 17.4239C20.2988 17.9857 19.5368 18.3013 18.7423 18.3013H3.04063C2.24612 18.3013 1.48415 17.9857 0.922345 17.4239C0.36054 16.8621 0.0449219 16.1001 0.0449219 15.3056V9.41752C0.0449219 9.25695 0.0823543 9.09859 0.154247 8.95501L3.53851 2.19631C3.53876 2.19579 3.53902 2.19528 3.53928 2.19476C3.78731 1.69634 4.16933 1.27688 4.64249 0.983467C5.11614 0.689751 5.66289 0.533987 6.22021 0.533691ZM4.46358 2.65599L5.38727 3.11851L2.11093 9.66169V15.3056C2.11093 15.5522 2.20888 15.7887 2.38323 15.963C2.55758 16.1374 2.79406 16.2353 3.04063 16.2353H18.7423C18.9888 16.2353 19.2253 16.1374 19.3997 15.963C19.574 15.7887 19.672 15.5522 19.672 15.3056V9.66169L16.3956 3.11851L16.3942 3.11568C16.3173 2.96079 16.1986 2.83044 16.0516 2.73928C15.9047 2.64816 15.7352 2.59982 15.5623 2.5997C15.5623 2.5997 15.5624 2.5997 15.5623 2.5997H6.22076C6.22071 2.5997 6.22081 2.5997 6.22076 2.5997C6.04785 2.59982 5.87824 2.64816 5.73129 2.73928C5.5843 2.83044 5.46565 2.96079 5.38868 3.11568L4.46358 2.65599Z" fill="#404040"/>
<path fill-rule="evenodd" clip-rule="evenodd" d="M3.9707 13.3431C3.9707 12.7725 4.43319 12.3101 5.00371 12.3101H5.01507C5.58558 12.3101 6.04807 12.7725 6.04807 13.3431C6.04807 13.9136 5.58558 14.3761 5.01507 14.3761H5.00371C4.43319 14.3761 3.9707 13.9136 3.9707 13.3431Z" fill="#404040"/>
<path fill-rule="evenodd" clip-rule="evenodd" d="M7.89551 13.3431C7.89551 12.7725 8.358 12.3101 8.92851 12.3101H8.93987C9.51039 12.3101 9.97288 12.7725 9.97288 13.3431C9.97288 13.9136 9.51039 14.3761 8.93987 14.3761H8.92851C8.358 14.3761 7.89551 13.9136 7.89551 13.3431Z" fill="#404040"/>
</svg>
