<svg width="23" height="19" viewBox="0 0 23 19" fill="none" xmlns="http://www.w3.org/2000/svg">
<path fill-rule="evenodd" clip-rule="evenodd" d="M5.40889 0.0181024C6.15698 -0.0505028 6.90918 0.0766708 7.59353 0.386394C8.27771 0.696043 8.86991 1.17715 9.31565 1.7816C9.58259 2.1436 9.50197 2.65086 9.13557 2.91461C8.76917 3.17835 8.25574 3.0987 7.9888 2.7367C7.7064 2.35375 7.33438 2.05314 6.90983 1.86099C6.48544 1.66892 6.02119 1.59087 5.56062 1.63311C5.10001 1.67535 4.65583 1.83675 4.27041 2.10409C3.88482 2.37154 3.57025 2.73666 3.35887 3.16662C3.14744 3.59669 3.04701 4.07603 3.06836 4.55872C3.08972 5.04141 3.23203 5.50911 3.4801 5.91734C3.72809 6.32544 4.07285 6.65957 4.47957 6.8902C4.88612 7.12073 5.34209 7.24085 5.80444 7.24085C6.25777 7.24085 6.62527 7.60394 6.62527 8.05183C6.62527 8.49972 6.25777 8.8628 5.80444 8.8628C5.05323 8.8628 4.31579 8.66743 3.66239 8.29693C3.00917 7.92652 2.46264 7.39403 2.07262 6.75221C1.68269 6.11052 1.46146 5.37987 1.42827 4.62955C1.39508 3.87924 1.5509 3.13186 1.88219 2.45798C2.21353 1.78399 2.71013 1.20458 3.32713 0.776614C3.9443 0.348531 4.66086 0.0867032 5.40889 0.0181024ZM15.4065 0.386394C16.0908 0.0766707 16.843 -0.0505028 17.5911 0.0181024C18.3391 0.0867033 19.0557 0.348531 19.6729 0.776614C20.2899 1.20458 20.7865 1.78399 21.1178 2.45798C21.4491 3.13186 21.6049 3.87924 21.5717 4.62955C21.5385 5.37987 21.3173 6.11052 20.9274 6.75221C20.5374 7.39403 19.9908 7.92652 19.3376 8.29693C18.6842 8.66743 17.9468 8.8628 17.1956 8.8628C16.7422 8.8628 16.3747 8.49972 16.3747 8.05183C16.3747 7.60394 16.7422 7.24085 17.1956 7.24085C17.6579 7.24085 18.1139 7.12073 18.5204 6.8902C18.9271 6.65957 19.2719 6.32544 19.5199 5.91734C19.768 5.50911 19.9103 5.04141 19.9316 4.55872C19.953 4.07603 19.8526 3.59669 19.6411 3.16662C19.4298 2.73666 19.1152 2.37154 18.7296 2.10409C18.3442 1.83675 17.9 1.67535 17.4394 1.63311C16.9788 1.59087 16.5146 1.66892 16.0902 1.86099C15.6656 2.05314 15.2936 2.35375 15.0112 2.7367C14.7443 3.0987 14.2308 3.17835 13.8644 2.91461C13.498 2.65086 13.4174 2.1436 13.6844 1.7816C14.1301 1.17715 14.7223 0.696043 15.4065 0.386394ZM11.5 4.51829C10.0096 4.51829 8.76111 5.75381 8.76111 7.32774C8.76111 8.90168 10.0096 10.1372 11.5 10.1372C12.9904 10.1372 14.2389 8.90168 14.2389 7.32774C14.2389 5.75381 12.9904 4.51829 11.5 4.51829ZM7.11945 7.32774C7.11945 4.90267 9.05842 2.89634 11.5 2.89634C13.9416 2.89634 15.8806 4.90267 15.8806 7.32774C15.8806 9.75282 13.9416 11.7591 11.5 11.7591C9.05842 11.7591 7.11945 9.75282 7.11945 7.32774ZM1.69173 11.1436C2.77832 10.0384 4.2572 9.41311 5.80444 9.41311C6.25777 9.41311 6.62527 9.7762 6.62527 10.2241C6.62527 10.672 6.25777 11.0351 5.80444 11.0351C4.70821 11.0351 3.65189 11.4777 2.86926 12.2737C2.27499 12.8781 1.87591 13.6487 1.71785 14.4817H5.0925C5.54583 14.4817 5.91333 14.8448 5.91333 15.2927C5.91333 15.7406 5.54583 16.1037 5.0925 16.1037H0.82083C0.603133 16.1037 0.394351 16.0182 0.240416 15.8661C0.0864801 15.714 0 15.5078 0 15.2927C0 13.7408 0.605928 12.2479 1.69173 11.1436ZM16.3747 10.2241C16.3747 9.7762 16.7422 9.41311 17.1956 9.41311C18.7428 9.41311 20.2217 10.0384 21.3083 11.1436C22.3941 12.2479 23 13.7408 23 15.2927C23 15.7406 22.6325 16.1037 22.1792 16.1037H17.9075C17.4542 16.1037 17.0867 15.7406 17.0867 15.2927C17.0867 14.8448 17.4542 14.4817 17.9075 14.4817H21.2821C21.1241 13.6487 20.725 12.8781 20.1307 12.2737C19.3481 11.4777 18.2918 11.0351 17.1956 11.0351C16.7422 11.0351 16.3747 10.672 16.3747 10.2241ZM7.38729 14.0399C8.47388 12.9348 9.95276 12.3095 11.5 12.3095C13.0472 12.3095 14.5261 12.9348 15.6127 14.0399C16.6985 15.1442 17.3044 16.6371 17.3044 18.189C17.3044 18.6369 16.9369 19 16.4836 19H6.51639C6.29869 19 6.08991 18.9146 5.93597 18.7625C5.78204 18.6104 5.69556 18.4041 5.69556 18.189C5.69556 16.6371 6.30149 15.1442 7.38729 14.0399ZM11.5 13.9314C10.4038 13.9314 9.34745 14.3741 8.56482 15.1701C7.97054 15.7745 7.57147 16.545 7.41341 17.378H15.5866C15.4285 16.545 15.0295 15.7745 14.4352 15.1701C13.6526 14.3741 12.5962 13.9314 11.5 13.9314Z" fill="#404040"/>
</svg>
