<svg width="20" height="21" viewBox="0 0 20 21" fill="none" xmlns="http://www.w3.org/2000/svg">
<path d="M8.95318 12.9016V12.803C8.96087 12.1478 9.02641 11.6289 9.15483 11.2433C9.28084 10.8579 9.46205 10.5441 9.69867 10.3068C9.93552 10.067 10.2203 9.84952 10.5528 9.65165C10.7668 9.51829 10.9607 9.37005 11.1321 9.20454C11.3031 9.04119 11.439 8.85087 11.54 8.63595C11.6407 8.4234 11.6911 8.18625 11.6911 7.92429C11.6911 7.61291 11.6154 7.3434 11.4643 7.11359C11.3157 6.88615 11.1142 6.71072 10.8673 6.58492C10.6179 6.46127 10.341 6.39956 10.0362 6.39956C9.76179 6.39956 9.49987 6.45372 9.24808 6.56744C8.9987 6.67878 8.78956 6.854 8.62573 7.09136C8.46211 7.32851 8.36645 7.63276 8.34116 8.00348H6.70898C6.73427 7.37296 6.89789 6.83933 7.19763 6.40193C7.5 5.96453 7.89804 5.63309 8.39152 5.40846C8.88786 5.18361 9.43698 5.07227 10.0362 5.07227C10.696 5.07227 11.2704 5.19073 11.7641 5.43306C12.2578 5.67279 12.6431 6.00899 12.9177 6.43883C13.1895 6.86889 13.3283 7.36821 13.3283 7.94177C13.3283 8.3345 13.2654 8.68795 13.1394 9.00192C13.0134 9.31567 12.837 9.59748 12.6055 9.84197C12.3735 10.0893 12.099 10.3068 11.7768 10.4945C11.472 10.6824 11.2251 10.8751 11.0388 11.0754C10.8499 11.2754 10.7138 11.5128 10.6282 11.7847C10.5425 12.0589 10.4945 12.3975 10.4873 12.803V12.9016H8.95318ZM9.76421 16.1045C9.46975 16.1023 9.21773 16.0009 9.00617 15.7957C8.79462 15.5907 8.69126 15.341 8.69126 15.0493C8.69126 14.7627 8.79462 14.5156 9.00617 14.3104C9.21773 14.1052 9.46975 14.0014 9.76421 14.0014C10.0538 14.0014 10.3056 14.1052 10.5174 14.3104C10.7314 14.5156 10.8372 14.7627 10.8372 15.0493C10.8372 15.242 10.787 15.42 10.6887 15.5784C10.5904 15.7389 10.4618 15.8675 10.3008 15.9614C10.1396 16.0553 9.96059 16.1023 9.76421 16.1045Z" fill="#404040"/>
<path fill-rule="evenodd" clip-rule="evenodd" d="M10.0188 18.6417C14.4667 18.6417 18.0723 15.036 18.0723 10.5882C18.0723 6.14033 14.4667 2.53465 10.0188 2.53465C5.571 2.53465 1.96532 6.14033 1.96532 10.5882C1.96532 15.036 5.571 18.6417 10.0188 18.6417ZM10.0188 20.5171C15.5024 20.5171 19.9478 16.0718 19.9478 10.5882C19.9478 5.10454 15.5024 0.65918 10.0188 0.65918C4.5352 0.65918 0.0898438 5.10454 0.0898438 10.5882C0.0898438 16.0718 4.5352 20.5171 10.0188 20.5171Z" fill="#404040"/>
</svg>
