<svg width="19" height="19" viewBox="0 0 19 19" fill="none" xmlns="http://www.w3.org/2000/svg">
<path fill-rule="evenodd" clip-rule="evenodd" d="M14.1096 1.88128H15.9909C16.7393 1.88128 17.4571 2.17859 17.9863 2.7078C18.5155 3.23701 18.8128 3.95478 18.8128 4.7032V15.9909C18.8128 16.7393 18.5155 17.4571 17.9863 17.9863C17.4571 18.5155 16.7393 18.8128 15.9909 18.8128H2.82192C2.0735 18.8128 1.35573 18.5155 0.826521 17.9863C0.297309 17.4571 0 16.7393 0 15.9909V4.7032C0 3.95478 0.297309 3.23701 0.826521 2.7078C1.35573 2.17859 2.0735 1.88128 2.82192 1.88128H4.7032V0.94064C4.7032 0.691167 4.8023 0.451911 4.97871 0.275507C5.15511 0.0991028 5.39437 0 5.64384 0C5.89331 0 6.13257 0.0991028 6.30897 0.275507C6.48538 0.451911 6.58448 0.691167 6.58448 0.94064V1.88128H12.2283V0.94064C12.2283 0.691167 12.3274 0.451911 12.5038 0.275507C12.6802 0.0991028 12.9195 0 13.169 0C13.4184 0 13.6577 0.0991028 13.8341 0.275507C14.0105 0.451911 14.1096 0.691167 14.1096 0.94064V1.88128ZM16.656 16.656C16.8324 16.4796 16.9315 16.2404 16.9315 15.9909L16.9315 12.2283V6.58449L16.9315 4.7032C16.9315 4.45373 16.8324 4.21447 16.656 4.03807C16.4796 3.86166 16.2404 3.76256 15.9909 3.76256H14.1096V4.7032C14.1096 4.95267 14.0105 5.19193 13.8341 5.36833C13.6577 5.54474 13.4184 5.64384 13.169 5.64384C12.9195 5.64384 12.6802 5.54474 12.5038 5.36833C12.3274 5.19193 12.2283 4.95267 12.2283 4.7032V3.76256H6.58448V4.7032C6.58448 4.95267 6.48538 5.19193 6.30897 5.36833C6.13257 5.54474 5.89331 5.64384 5.64384 5.64384C5.39437 5.64384 5.15511 5.54474 4.97871 5.36833C4.8023 5.19193 4.7032 4.95267 4.7032 4.7032V3.76256H2.82192C2.57245 3.76256 2.33319 3.86166 2.15679 4.03807C1.98038 4.21447 1.88128 4.45373 1.88128 4.7032V7.52512H1.88129L1.88128 9.4064V15.9909C1.88128 16.2404 1.98038 16.4796 2.15679 16.656C2.33319 16.8324 2.57245 16.9315 2.82192 16.9315H15.9909C16.2404 16.9315 16.4796 16.8324 16.656 16.656Z" fill="#404040"/>
<path fill-rule="evenodd" clip-rule="evenodd" d="M8.38594 12.3984L12.8378 7.9465C13.1669 7.61744 13.7004 7.61744 14.0294 7.9465C14.3585 8.27557 14.3585 8.80909 14.0294 9.13815L8.9864 14.1812C8.65734 14.5103 8.12382 14.5103 7.79475 14.1812C7.74722 14.1337 7.70655 14.0819 7.67275 14.027C7.60941 13.9907 7.54979 13.9455 7.49569 13.8914L4.7468 11.1425C4.41773 10.8135 4.41773 10.2799 4.7468 9.95087C5.07586 9.62181 5.60938 9.62181 5.93844 9.95087L8.38594 12.3984Z" fill="#404040"/>
</svg>
