<svg width="19" height="19" viewBox="0 0 19 19" fill="none" xmlns="http://www.w3.org/2000/svg">
<path fill-rule="evenodd" clip-rule="evenodd" d="M14.1994 1.88128H16.0807C16.8291 1.88128 17.5469 2.17859 18.0761 2.7078C18.6053 3.23701 18.9026 3.95478 18.9026 4.7032V15.9909C18.9026 16.7393 18.6053 17.4571 18.0761 17.9863C17.5469 18.5155 16.8291 18.8128 16.0807 18.8128H2.91176C2.16334 18.8128 1.44558 18.5155 0.916365 17.9863C0.387152 17.4571 0.0898438 16.7393 0.0898438 15.9909V4.7032C0.0898438 3.95478 0.387152 3.23701 0.916365 2.7078C1.44558 2.17859 2.16334 1.88128 2.91176 1.88128H4.79305V0.94064C4.79305 0.691167 4.89215 0.451911 5.06855 0.275507C5.24496 0.0991028 5.48421 0 5.73369 0C5.98316 0 6.22241 0.0991028 6.39882 0.275507C6.57522 0.451911 6.67433 0.691167 6.67433 0.94064V1.88128H12.3182V0.94064C12.3182 0.691167 12.4173 0.451911 12.5937 0.275507C12.7701 0.0991028 13.0093 0 13.2588 0C13.5083 0 13.7475 0.0991028 13.9239 0.275507C14.1003 0.451911 14.1994 0.691167 14.1994 0.94064V1.88128ZM16.7459 16.656C16.9223 16.4796 17.0214 16.2404 17.0214 15.9909L17.0214 12.2283V6.58449L17.0214 4.7032C17.0214 4.45373 16.9223 4.21447 16.7459 4.03807C16.5695 3.86166 16.3302 3.76256 16.0807 3.76256H14.1994V4.7032C14.1994 4.95267 14.1003 5.19193 13.9239 5.36833C13.7475 5.54474 13.5083 5.64384 13.2588 5.64384C13.0093 5.64384 12.7701 5.54474 12.5937 5.36833C12.4173 5.19193 12.3182 4.95267 12.3182 4.7032V3.76256H6.67433V4.7032C6.67433 4.95267 6.57522 5.19193 6.39882 5.36833C6.22241 5.54474 5.98316 5.64384 5.73369 5.64384C5.48421 5.64384 5.24496 5.54474 5.06855 5.36833C4.89215 5.19193 4.79305 4.95267 4.79305 4.7032V3.76256H2.91176C2.66229 3.76256 2.42304 3.86166 2.24663 4.03807C2.07023 4.21447 1.97112 4.45373 1.97112 4.7032V7.52512H1.97113L1.97112 9.4064V15.9909C1.97112 16.2404 2.07023 16.4796 2.24663 16.656C2.42304 16.8324 2.66229 16.9315 2.91176 16.9315H16.0807C16.3302 16.9315 16.5695 16.8324 16.7459 16.656Z" fill="#404040"/>
<path d="M14.67 8.7007C14.67 9.35008 14.1435 9.8765 13.4942 9.8765C12.8448 9.8765 12.3184 9.35008 12.3184 8.7007C12.3184 8.05133 12.8448 7.5249 13.4942 7.5249C14.1435 7.5249 14.67 8.05133 14.67 8.7007Z" fill="#404040"/>
<path d="M10.9073 8.7007C10.9073 9.35008 10.3808 9.8765 9.73146 9.8765C9.08209 9.8765 8.55566 9.35008 8.55566 8.7007C8.55566 8.05133 9.08209 7.5249 9.73146 7.5249C10.3808 7.5249 10.9073 8.05133 10.9073 8.7007Z" fill="#404040"/>
<path d="M10.9073 12.4634C10.9073 13.1128 10.3808 13.6392 9.73146 13.6392C9.08209 13.6392 8.55566 13.1128 8.55566 12.4634C8.55566 11.814 9.08209 11.2876 9.73146 11.2876C10.3808 11.2876 10.9073 11.814 10.9073 12.4634Z" fill="#404040"/>
<path d="M7.14457 12.4634C7.14457 13.1128 6.61815 13.6392 5.96877 13.6392C5.31939 13.6392 4.79297 13.1128 4.79297 12.4634C4.79297 11.814 5.31939 11.2876 5.96877 11.2876C6.61815 11.2876 7.14457 11.814 7.14457 12.4634Z" fill="#404040"/>
</svg>
