<svg width="18" height="20" viewBox="0 0 18 20" fill="none" xmlns="http://www.w3.org/2000/svg">
<path d="M2 20H16C16.5304 20 17.0391 19.7893 17.4142 19.4142C17.7893 19.0392 18 18.5305 18 18.0001V9.00043C18.0007 8.86883 17.9755 8.73838 17.9258 8.61654C17.876 8.49471 17.8027 8.3839 17.71 8.29046L9.70999 0.290781C9.52263 0.104538 9.26918 0 9.00499 0C8.74081 0 8.48735 0.104538 8.29999 0.290781L0.3 8.29046C0.205512 8.38307 0.130342 8.49352 0.0788452 8.61539C0.0273486 8.73726 0.00054925 8.86813 0 9.00043V18.0001C0 18.5305 0.210713 19.0392 0.585786 19.4142C0.960858 19.7893 1.46957 20 2 20ZM6.99999 18.0001V13.0003H11V18.0001H6.99999ZM2 9.41042L8.99999 2.4107L16 9.41042V18.0001H13V13.0003C13 12.4699 12.7893 11.9612 12.4142 11.5861C12.0391 11.2111 11.5304 11.0004 11 11.0004H6.99999C6.46956 11.0004 5.96085 11.2111 5.58578 11.5861C5.21071 11.9612 5 12.4699 5 13.0003V18.0001H2V9.41042Z" fill="#0A1158"/>
</svg>
