<svg width="140" height="25" viewBox="0 0 140 25" fill="none" xmlns="http://www.w3.org/2000/svg">
<path d="M0.496814 24.6917V8.32306H5.46496V24.6917H0.496814ZM2.98089 5.08631C2.04936 5.08631 1.31449 4.87053 0.776272 4.43897C0.258757 3.98685 0 3.34977 0 2.52774C0 1.78792 0.269108 1.18167 0.807323 0.709001C1.34554 0.236334 2.07006 0 2.98089 0C3.91241 0 4.63693 0.226058 5.15445 0.678175C5.67196 1.10974 5.93072 1.72626 5.93072 2.52774C5.93072 3.28812 5.66161 3.90464 5.1234 4.37731C4.60588 4.84998 3.89171 5.08631 2.98089 5.08631Z" fill="#0A1158"/>
<path d="M10.102 24.6917V8.32306H14.8217L14.977 11.2824L14.3249 11.3132C14.5733 10.7789 14.8838 10.3062 15.2564 9.89519C15.6497 9.48418 16.0844 9.14509 16.5606 8.87793C17.0574 8.59022 17.5645 8.37443 18.0821 8.23058C18.6203 8.08672 19.1585 8.0148 19.6967 8.0148C20.504 8.0148 21.2389 8.1381 21.9013 8.38471C22.5637 8.63132 23.1433 9.03206 23.6402 9.58693C24.137 10.1213 24.5303 10.8508 24.8201 11.7756L24.0438 11.7139L24.2922 11.2207C24.5613 10.7275 24.9029 10.2857 25.3169 9.89519C25.7516 9.48418 26.2277 9.14509 26.7453 8.87793C27.2628 8.59022 27.801 8.37443 28.3599 8.23058C28.9188 8.08672 29.457 8.0148 29.9745 8.0148C31.2787 8.0148 32.3655 8.27168 33.2349 8.78545C34.1043 9.27867 34.7564 10.0288 35.1911 11.0358C35.6465 12.0427 35.8742 13.2655 35.8742 14.7041V24.6917H30.875V15.1048C30.875 14.4472 30.7819 13.9026 30.5956 13.471C30.4093 13.0395 30.1298 12.7209 29.7572 12.5154C29.4053 12.2894 28.9602 12.1763 28.422 12.1763C27.9873 12.1763 27.5836 12.2483 27.211 12.3921C26.8591 12.536 26.5486 12.7312 26.2795 12.9778C26.0311 13.2244 25.8344 13.5121 25.6895 13.8409C25.5446 14.1697 25.4722 14.5397 25.4722 14.9507V24.6917H20.473V15.074C20.473 14.4575 20.3798 13.9334 20.1935 13.5019C20.0072 13.0703 19.7278 12.7415 19.3551 12.5154C18.9825 12.2894 18.5478 12.1763 18.051 12.1763C17.6163 12.1763 17.2126 12.2483 16.84 12.3921C16.4881 12.536 16.1776 12.7312 15.9085 12.9778C15.6601 13.2244 15.4634 13.5121 15.3185 13.8409C15.1736 14.1697 15.1012 14.5294 15.1012 14.9199V24.6917H10.102Z" fill="#0A1158"/>
<path d="M39.9703 24.6917V8.32306H44.69L44.8453 11.2824L44.1932 11.3132C44.4416 10.7789 44.7521 10.3062 45.1247 9.89519C45.518 9.48418 45.9527 9.14509 46.4289 8.87793C46.9257 8.59022 47.4328 8.37443 47.9503 8.23058C48.4886 8.08672 49.0268 8.0148 49.565 8.0148C50.3723 8.0148 51.1072 8.1381 51.7696 8.38471C52.432 8.63132 53.0116 9.03206 53.5085 9.58693C54.0053 10.1213 54.3986 10.8508 54.6884 11.7756L53.9121 11.7139L54.1605 11.2207C54.4296 10.7275 54.7712 10.2857 55.1852 9.89519C55.6199 9.48418 56.096 9.14509 56.6135 8.87793C57.1311 8.59022 57.6693 8.37443 58.2282 8.23058C58.7871 8.08672 59.3253 8.0148 59.8428 8.0148C61.147 8.0148 62.2338 8.27168 63.1032 8.78545C63.9726 9.27867 64.6247 10.0288 65.0594 11.0358C65.5148 12.0427 65.7425 13.2655 65.7425 14.7041V24.6917H60.7433V15.1048C60.7433 14.4472 60.6502 13.9026 60.4639 13.471C60.2775 13.0395 59.9981 12.7209 59.6255 12.5154C59.2736 12.2894 58.8285 12.1763 58.2903 12.1763C57.8556 12.1763 57.4519 12.2483 57.0793 12.3921C56.7274 12.536 56.4169 12.7312 56.1478 12.9778C55.8994 13.2244 55.7027 13.5121 55.5578 13.8409C55.4129 14.1697 55.3405 14.5397 55.3405 14.9507V24.6917H50.3413V15.074C50.3413 14.4575 50.2481 13.9334 50.0618 13.5019C49.8755 13.0703 49.596 12.7415 49.2234 12.5154C48.8508 12.2894 48.4161 12.1763 47.9193 12.1763C47.4846 12.1763 47.0809 12.2483 46.7083 12.3921C46.3564 12.536 46.0459 12.7312 45.7768 12.9778C45.5284 13.2244 45.3317 13.5121 45.1868 13.8409C45.0419 14.1697 44.9695 14.5294 44.9695 14.9199V24.6917H39.9703Z" fill="#0A1158"/>
<path d="M77.7255 25C75.9038 25 74.3202 24.6404 72.9747 23.9211C71.6292 23.1813 70.5838 22.1845 69.8386 20.9309C69.0933 19.6568 68.7207 18.208 68.7207 16.5845C68.7207 15.3309 68.9277 14.18 69.3417 13.1319C69.7558 12.0838 70.3354 11.1796 71.0806 10.4192C71.8258 9.63831 72.7056 9.04233 73.7199 8.63132C74.7549 8.19975 75.8831 7.98397 77.1045 7.98397C78.2637 7.98397 79.3194 8.18948 80.2717 8.60049C81.2446 9.01151 82.083 9.58693 82.7868 10.3268C83.4906 11.0666 84.0288 11.94 84.4014 12.947C84.774 13.954 84.9396 15.0534 84.8982 16.2454L84.8672 17.5709H71.7327L71.0185 14.7965H80.8306L80.3027 15.3822V14.7657C80.2613 14.252 80.0957 13.7998 79.8059 13.4094C79.5368 12.9984 79.1745 12.6798 78.7191 12.4538C78.2637 12.2277 77.7462 12.1147 77.1666 12.1147C76.3592 12.1147 75.6658 12.2791 75.0862 12.6079C74.5272 12.9162 74.1029 13.3785 73.8131 13.9951C73.5233 14.591 73.3784 15.3309 73.3784 16.2146C73.3784 17.1188 73.5647 17.91 73.9373 18.5882C74.3306 19.2458 74.8895 19.7596 75.614 20.1295C76.3592 20.4994 77.239 20.6843 78.2533 20.6843C78.9572 20.6843 79.5782 20.5816 80.1164 20.3761C80.6753 20.1706 81.2756 19.8212 81.9174 19.328L84.2462 22.5956C83.6045 23.1504 82.9213 23.6025 82.1968 23.9519C81.4723 24.3013 80.7271 24.5582 79.9611 24.7226C79.2159 24.9075 78.4707 25 77.7255 25Z" fill="#0A1158"/>
<path d="M88.0635 24.6917V8.32306H92.7832L92.9385 11.6523L91.9448 12.0222C92.1726 11.2824 92.5762 10.6145 93.1558 10.0185C93.7562 9.40197 94.4703 8.90875 95.2983 8.53884C96.1264 8.16893 96.9958 7.98397 97.9066 7.98397C99.1487 7.98397 100.194 8.24085 101.043 8.75462C101.891 9.24784 102.533 9.99794 102.968 11.0049C103.403 11.9914 103.62 13.2039 103.62 14.6424V24.6917H98.6208V15.0432C98.6208 14.3855 98.5276 13.8409 98.3413 13.4094C98.155 12.9778 97.8652 12.6593 97.4719 12.4538C97.0993 12.2277 96.6335 12.1249 96.0746 12.1455C95.6399 12.1455 95.2362 12.2174 94.8636 12.3613C94.491 12.4846 94.1702 12.6798 93.9011 12.947C93.632 13.1936 93.4146 13.4813 93.249 13.8101C93.1041 14.1389 93.0316 14.4986 93.0316 14.889V24.6917H90.5786C89.999 24.6917 89.5022 24.6917 89.0882 24.6917C88.6742 24.6917 88.3326 24.6917 88.0635 24.6917Z" fill="#0A1158"/>
<path d="M115.008 25C113.414 25 111.986 24.6301 110.723 23.8903C109.461 23.1504 108.457 22.1434 107.711 20.8693C106.987 19.5746 106.625 18.1155 106.625 16.492C106.625 14.8685 106.987 13.4196 107.711 12.1455C108.457 10.8508 109.461 9.83354 110.723 9.09371C111.986 8.35388 113.414 7.98397 115.008 7.98397C116.478 7.98397 117.824 8.24085 119.045 8.75462C120.287 9.26839 121.27 9.98767 121.995 10.9125L119.293 14.1184C119.004 13.7896 118.662 13.4813 118.269 13.1936C117.875 12.9059 117.441 12.6798 116.965 12.5154C116.488 12.351 115.992 12.2688 115.474 12.2688C114.688 12.2688 113.994 12.4538 113.394 12.8237C112.793 13.173 112.328 13.6663 111.996 14.3033C111.665 14.9404 111.5 15.67 111.5 16.492C111.5 17.2729 111.665 17.9819 111.996 18.619C112.348 19.2561 112.824 19.7596 113.425 20.1295C114.025 20.4994 114.708 20.6843 115.474 20.6843C116.012 20.6843 116.509 20.6227 116.965 20.4994C117.42 20.3555 117.834 20.15 118.207 19.8829C118.6 19.6157 118.962 19.2869 119.293 18.8964L121.964 22.1332C121.26 23.0168 120.277 23.7156 119.014 24.2293C117.772 24.7431 116.437 25 115.008 25Z" fill="#0A1158"/>
<path d="M132.55 25C130.728 25 129.144 24.6404 127.799 23.9211C126.453 23.1813 125.408 22.1845 124.663 20.9309C123.918 19.6568 123.545 18.208 123.545 16.5845C123.545 15.3309 123.752 14.18 124.166 13.1319C124.58 12.0838 125.16 11.1796 125.905 10.4192C126.65 9.63831 127.53 9.04233 128.544 8.63132C129.579 8.19975 130.707 7.98397 131.929 7.98397C133.088 7.98397 134.144 8.18948 135.096 8.60049C136.069 9.01151 136.907 9.58693 137.611 10.3268C138.315 11.0666 138.853 11.94 139.226 12.947C139.598 13.954 139.764 15.0534 139.722 16.2454L139.691 17.5709H126.557L125.843 14.7965H135.655L135.127 15.3822V14.7657C135.086 14.252 134.92 13.7998 134.63 13.4094C134.361 12.9984 133.999 12.6798 133.543 12.4538C133.088 12.2277 132.57 12.1147 131.991 12.1147C131.183 12.1147 130.49 12.2791 129.91 12.6079C129.351 12.9162 128.927 13.3785 128.637 13.9951C128.348 14.591 128.203 15.3309 128.203 16.2146C128.203 17.1188 128.389 17.91 128.762 18.5882C129.155 19.2458 129.714 19.7596 130.438 20.1295C131.183 20.4994 132.063 20.6843 133.078 20.6843C133.781 20.6843 134.402 20.5816 134.941 20.3761C135.5 20.1706 136.1 19.8212 136.742 19.328L139.07 22.5956C138.429 23.1504 137.746 23.6025 137.021 23.9519C136.297 24.3013 135.551 24.5582 134.785 24.7226C134.04 24.9075 133.295 25 132.55 25Z" fill="#0A1158"/>
</svg>
