<svg width="19" height="20" viewBox="0 0 19 20" fill="none" xmlns="http://www.w3.org/2000/svg">
<path d="M16.0807 2.64788H14.1994V1.70724C14.1994 1.45777 14.1003 1.21851 13.9239 1.04211C13.7475 0.865704 13.5083 0.766602 13.2588 0.766602C13.0093 0.766602 12.7701 0.865704 12.5937 1.04211C12.4173 1.21851 12.3182 1.45777 12.3182 1.70724V2.64788H6.67433V1.70724C6.67433 1.45777 6.57522 1.21851 6.39882 1.04211C6.22241 0.865704 5.98316 0.766602 5.73369 0.766602C5.48421 0.766602 5.24496 0.865704 5.06855 1.04211C4.89215 1.21851 4.79305 1.45777 4.79305 1.70724V2.64788H2.91176C2.16334 2.64788 1.44558 2.94519 0.916365 3.4744C0.387152 4.00362 0.0898438 4.72138 0.0898438 5.4698V16.7575C0.0898438 17.5059 0.387152 18.2237 0.916365 18.7529C1.44558 19.2821 2.16334 19.5794 2.91176 19.5794H16.0807C16.8291 19.5794 17.5469 19.2821 18.0761 18.7529C18.6053 18.2237 18.9026 17.5059 18.9026 16.7575V5.4698C18.9026 4.72138 18.6053 4.00362 18.0761 3.4744C17.5469 2.94519 16.8291 2.64788 16.0807 2.64788ZM17.0214 16.7575C17.0214 17.007 16.9223 17.2462 16.7459 17.4226C16.5695 17.599 16.3302 17.6981 16.0807 17.6981H2.91176C2.66229 17.6981 2.42304 17.599 2.24663 17.4226C2.07023 17.2462 1.97112 17.007 1.97112 16.7575V10.173H17.0214V16.7575ZM17.0214 8.29172H1.97112V5.4698C1.97112 5.22033 2.07023 4.98107 2.24663 4.80467C2.42304 4.62827 2.66229 4.52916 2.91176 4.52916H4.79305V5.4698C4.79305 5.71928 4.89215 5.95853 5.06855 6.13494C5.24496 6.31134 5.48421 6.41044 5.73369 6.41044C5.98316 6.41044 6.22241 6.31134 6.39882 6.13494C6.57522 5.95853 6.67433 5.71928 6.67433 5.4698V4.52916H12.3182V5.4698C12.3182 5.71928 12.4173 5.95853 12.5937 6.13494C12.7701 6.31134 13.0093 6.41044 13.2588 6.41044C13.5083 6.41044 13.7475 6.31134 13.9239 6.13494C14.1003 5.95853 14.1994 5.71928 14.1994 5.4698V4.52916H16.0807C16.3302 4.52916 16.5695 4.62827 16.7459 4.80467C16.9223 4.98107 17.0214 5.22033 17.0214 5.4698V8.29172Z" fill="#404040"/>
<path fill-rule="evenodd" clip-rule="evenodd" d="M8.12405 14.1763V14.2323H8.18004V14.1763H8.12405ZM7.53615 12.4126C6.88678 12.4126 6.36035 12.939 6.36035 13.5884V14.8202C6.36035 15.4696 6.88677 15.996 7.53615 15.996H8.76794C9.41732 15.996 9.94374 15.4696 9.94374 14.8202V13.5884C9.94374 12.939 9.41732 12.4126 8.76794 12.4126H7.53615Z" fill="#404040"/>
</svg>
