<svg width="20" height="23" viewBox="0 0 20 23" fill="none" xmlns="http://www.w3.org/2000/svg">
<path d="M9.82285 0.816895L0.0898438 4.80749V10.7934C0.0898438 16.3303 4.2426 21.5081 9.82285 22.7652C15.4031 21.5081 19.5559 16.3303 19.5559 10.7934V4.80749L9.82285 0.816895ZM17.393 10.7934C17.393 12.639 16.8414 14.4348 15.9006 15.9911L14.3325 14.5445C15.0196 13.5855 15.3261 12.4367 15.1999 11.293C15.0738 10.1493 14.5228 9.08106 13.6404 8.26933C12.6259 7.33491 11.251 6.81008 9.81745 6.81008C8.38391 6.81008 7.00896 7.33491 5.99454 8.26933C4.98163 9.20515 4.41271 10.4736 4.41271 11.796C4.41271 13.1185 4.98163 14.3869 5.99454 15.3227C6.87572 16.1348 8.03347 16.6417 9.27259 16.758C10.5117 16.8743 11.7564 16.5929 12.7968 15.9612L14.6569 17.6772C13.37 19.0938 11.7046 20.1813 9.82285 20.71C5.47544 19.463 2.25273 15.3028 2.25273 10.7934V6.10443L9.82285 3.00175L17.393 6.10443V10.7934ZM9.82285 14.784C8.02765 14.784 6.57852 13.4471 6.57852 11.791C6.57852 10.1349 8.02765 8.79808 9.82285 8.79808C11.6181 8.79808 13.0672 10.1349 13.0672 11.791C13.0672 13.4471 11.6181 14.784 9.82285 14.784Z" fill="#404040"/>
<path fill-rule="evenodd" clip-rule="evenodd" d="M16.0117 16.7739L13.6687 14.6125L13.926 14.2533C14.5434 13.3917 14.8152 12.3656 14.7029 11.3478C14.5906 10.3297 14.0994 9.371 13.3019 8.63732C12.3837 7.79156 11.1309 7.31008 9.81745 7.31008C8.50415 7.31008 7.25181 7.7912 6.33366 8.63674C5.41836 9.48248 4.91271 10.6197 4.91271 11.796C4.91271 12.9723 5.41836 14.1096 6.33366 14.9553C7.13102 15.69 8.1848 16.1537 9.31932 16.2602C10.454 16.3667 11.591 16.1084 12.5373 15.5338L12.8591 15.3384L15.3606 17.6461L15.027 18.0134C13.6824 19.4935 11.9376 20.6351 9.95811 21.1914L9.82145 21.2298L9.68499 21.1906C5.12994 19.884 1.75273 15.5328 1.75273 10.7934V5.769L9.82285 2.46138L17.893 5.769V10.7934C17.893 12.7387 17.3119 14.623 16.3285 16.2498L16.0117 16.7739ZM5.99454 15.3227C4.98163 14.3869 4.41271 13.1185 4.41271 11.796C4.41271 10.4736 4.98163 9.20515 5.99454 8.26933C7.00896 7.33491 8.38391 6.81008 9.81745 6.81008C11.251 6.81008 12.6259 7.33491 13.6404 8.26933C14.5228 9.08106 15.0738 10.1493 15.1999 11.293C15.3261 12.4367 15.0196 13.5855 14.3325 14.5445L15.9006 15.9911C15.989 15.8448 16.074 15.6964 16.1555 15.546C16.9403 14.0967 17.393 12.4655 17.393 10.7934V6.10443L9.82285 3.00175L2.25273 6.10443V10.7934C2.25273 15.3028 5.47544 19.4629 9.82285 20.71C11.5408 20.2273 13.0784 19.2789 14.3123 18.0395C14.3904 17.961 14.4673 17.8814 14.543 17.8006C14.5813 17.7598 14.6193 17.7186 14.6569 17.6772L12.7968 15.9612C11.7564 16.5929 10.5117 16.8743 9.27259 16.758C8.03347 16.6417 6.87572 16.1348 5.99454 15.3227ZM0.589844 5.14288V10.7934C0.589844 16.0551 4.52114 21.0024 9.82285 22.2521C15.1246 21.0024 19.0559 16.0551 19.0559 10.7934V5.14288L9.82285 1.35729L0.589844 5.14288ZM9.82285 0.816895L0.0898438 4.80749V10.7934C0.0898438 16.3303 4.24259 21.5081 9.82285 22.7652C15.4031 21.5081 19.5559 16.3303 19.5559 10.7934V4.80749L9.82285 0.816895ZM9.82285 15.284C7.79025 15.284 6.07852 13.7605 6.07852 11.791C6.07852 9.82159 7.79025 8.29808 9.82285 8.29808C11.8555 8.29808 13.5672 9.82159 13.5672 11.791C13.5672 13.7605 11.8555 15.284 9.82285 15.284ZM6.57852 11.791C6.57852 13.4471 8.02765 14.784 9.82285 14.784C11.6181 14.784 13.0672 13.4471 13.0672 11.791C13.0672 10.1349 11.6181 8.79808 9.82285 8.79808C8.02765 8.79808 6.57852 10.1349 6.57852 11.791Z" fill="#404040"/>
</svg>
