<svg width="88" height="145" viewBox="0 0 88 145" fill="none" xmlns="http://www.w3.org/2000/svg">
<path d="M26.4907 81.0728C26.4907 81.0728 38.0648 86.7657 46.88 86.3193C46.88 86.3193 49.7306 88.0974 47.0596 89.6084C44.3887 91.1193 28.2713 87.5632 24.1751 84.896C20.0789 82.2289 26.4907 81.0728 26.4907 81.0728Z" fill="#FFC280"/>
<path d="M29.3333 105.195C29.0242 105.274 28.6965 105.227 28.4221 105.065C28.1477 104.902 27.9491 104.638 27.8698 104.329L2.13477 4.35931L4.46181 3.76025L30.2007 103.73C30.2403 103.883 30.2493 104.043 30.2271 104.199C30.2049 104.356 30.1521 104.506 30.0715 104.642C29.9909 104.779 29.8842 104.897 29.7576 104.992C29.6309 105.087 29.4867 105.156 29.3333 105.195Z" fill="#282057"/>
<path d="M23.7425 82.786C23.7655 82.7326 23.7731 82.683 23.7922 82.6334C23.6737 82.4843 23.5124 82.3751 23.3299 82.3205C22.3517 82.0076 19.9902 82.496 19.9902 82.496C19.9902 82.496 19.9902 82.8432 20.0132 83.3431C21.3964 83.8276 23.3069 83.8315 23.7425 82.786Z" fill="#FBAD5F"/>
<path d="M3.12762 5.96056C4.74961 5.90796 6.02179 4.55232 5.96912 2.93264C5.91645 1.31296 4.55887 0.0425939 2.93687 0.0951922C1.31488 0.14779 0.0427002 1.50344 0.0953736 3.12311C0.148047 4.74279 1.50563 6.01316 3.12762 5.96056Z" fill="#282057"/>
<path d="M79.898 28.4584C79.1988 25.0243 78.4498 21.285 77.7659 17.7059C77.0718 17.9098 76.3379 17.9387 75.6299 17.7899C73.7461 17.3434 72.6494 16.504 70.7656 17.7899C69.0461 18.9689 67.6782 21.3842 65.3129 21.4491C62.4395 21.5292 61.0257 17.9921 58.3547 17.0038C57.4845 16.7006 56.5482 16.6386 55.6455 16.8245C52.8714 17.3625 50.8615 19.7015 48.1753 20.5486C42.8907 22.2122 36.7846 18.801 32.0809 16.7329C21.4811 12.0931 10.2395 15.9698 5.60449 20.3921L11.0266 41.1721C15.2795 35.9676 22.1078 32.69 28.9476 33.2394C33.231 33.579 40.4682 35.3151 44.8013 35.5288C54.1782 35.9943 57.1167 30.9004 59.9252 30.4921C62.3554 30.1411 63.2877 31.3316 64.6786 33.0563C65.9893 34.6817 70.6242 39.0621 72.4469 35.8607C72.8672 35.1243 73.2875 31.4308 76.1304 32.0909C78.404 32.648 81.3883 35.7005 79.898 28.4584Z" fill="#F9FBFC"/>
<path d="M82.6034 41.2983C82.55 41.2487 80.9757 33.8655 79.9287 28.4473C79.2065 28.9738 78.4002 31.4769 76.1305 30.9465C73.2876 30.2826 72.8673 33.9761 72.447 34.7125C70.6243 37.9139 65.9893 33.5335 64.6787 31.9119C63.2878 30.1834 62.3555 28.9929 59.9253 29.3478C57.1167 29.7522 54.1936 34.8499 44.8014 34.3806C40.4682 34.1631 33.2311 32.4308 28.9476 32.0912C22.0123 31.5341 15.1076 34.8995 10.8662 40.2185C12.5169 46.4571 14.5154 54.573 14.5154 54.573C18.6345 49.0174 25.566 45.4612 32.528 46.0336C36.7312 46.3731 40.7586 48.1207 45.0001 47.8956C57.0441 47.2546 59.5202 40.7069 62.2867 40.2986C64.6672 39.9476 65.5766 41.1381 66.937 42.8628C68.2208 44.4882 72.7565 48.8686 74.5409 45.6673C74.9498 44.9308 75.0415 44.0609 75.3052 43.2596C75.7828 41.7982 76.8145 41.0847 78.1442 41.8974C81.2775 43.8129 83.509 42.2065 82.6034 41.2983Z" fill="#058800"/>
<path d="M5.81874 21.3041C10.2703 16.7787 21.4279 12.8257 32.2454 17.5609C36.9454 19.6176 43.0515 23.0249 48.3361 21.3766C51.0108 20.5295 53.0322 18.1905 55.8063 17.6563C56.7086 17.4692 57.6449 17.5298 58.5154 17.8318C61.1902 18.8239 62.604 22.361 65.4737 22.2809C67.8389 22.2122 69.2069 19.8007 70.9302 18.6179C72.814 17.3282 73.9106 18.1676 75.7906 18.6179C76.5053 18.7684 77.2464 18.7369 77.9457 18.5263C76.7688 11.9214 75.057 2.96609 75.4811 2.01981C74.5182 3.46594 73.0853 5.11049 71.3964 4.69076C69.6234 4.24433 68.5879 3.40108 66.811 4.69076C65.1871 5.87361 63.8994 8.2851 61.6679 8.34996C58.9587 8.43391 57.6251 4.91589 55.107 3.90474C54.2898 3.60103 53.4019 3.54007 52.5507 3.72922C49.9333 4.26341 48.0418 6.6024 45.5046 7.44947C40.5372 9.11309 34.7635 5.70572 30.3311 3.63383C16.7471 -2.67343 2.05495 6.75884 3.37705 11.8833C3.38087 11.8833 4.74501 17.248 5.81874 21.3041Z" fill="#FF7F00"/>
<path d="M48.2924 30.1554C49.3256 27.7225 47.4699 24.6098 44.1476 23.203C40.8253 21.7961 37.2945 22.6279 36.2613 25.0607C35.2282 27.4936 37.0839 30.6063 40.4062 32.0131C43.7284 33.42 47.2592 32.5882 48.2924 30.1554Z" fill="#282057"/>
<path d="M46.6959 30.8553C46.7587 30.8134 46.8325 30.7911 46.908 30.7911C46.9835 30.7911 47.0573 30.8134 47.1201 30.8553C47.2805 30.6922 47.4239 30.5132 47.548 30.3211C47.4028 30.2371 47.3302 30.0883 47.3914 29.9777C47.4353 29.9213 47.498 29.8825 47.5682 29.8685C47.6383 29.8545 47.7112 29.8662 47.7735 29.9013C47.8694 29.687 47.9424 29.4632 47.9913 29.2336C47.9187 29.2174 47.8537 29.1774 47.8066 29.12C47.7595 29.0626 47.7331 28.9911 47.7314 28.9169C47.7314 28.7872 47.8881 28.7185 48.0524 28.7528C48.0582 28.641 48.0582 28.5289 48.0524 28.4171C48.0505 28.3124 48.0428 28.208 48.0295 28.1042C47.9526 28.0982 47.8793 28.0691 47.8193 28.0207C47.7593 27.9724 47.7154 27.907 47.6932 27.8333C47.6703 27.6997 47.7773 27.5967 47.9378 27.5967C47.8751 27.3524 47.792 27.1137 47.6894 26.8832C47.6129 26.8872 47.5367 26.8702 47.4693 26.8338C47.4019 26.7975 47.3458 26.7432 47.3073 26.6771C47.2905 26.6495 47.2809 26.618 47.2793 26.5857C47.2777 26.5534 47.2843 26.5212 47.2983 26.492C47.3123 26.4628 47.3335 26.4376 47.3597 26.4186C47.386 26.3997 47.4165 26.3875 47.4487 26.3833C47.3054 26.1368 47.1445 25.9008 46.9672 25.6774C46.8923 25.7002 46.8123 25.7008 46.737 25.6791C46.6617 25.6575 46.5944 25.6145 46.5431 25.5553C46.5176 25.5346 46.4976 25.5081 46.4847 25.4779C46.4719 25.4478 46.4665 25.415 46.4691 25.3823C46.4718 25.3497 46.4823 25.3181 46.4998 25.2905C46.5174 25.2628 46.5414 25.2397 46.5698 25.2234C46.3835 25.0286 46.1858 24.8451 45.9776 24.6739C45.911 24.7103 45.8352 24.7261 45.7597 24.7193C45.6841 24.7125 45.6123 24.6834 45.5534 24.6358C45.4197 24.5327 45.3853 24.3839 45.4732 24.2885C45.2282 24.1144 44.973 23.9552 44.709 23.8116C44.6584 23.8651 44.5909 23.8997 44.5178 23.9094C44.4448 23.9191 44.3706 23.9035 44.3077 23.865C44.2403 23.8414 44.184 23.7935 44.1501 23.7307C44.1162 23.6679 44.107 23.5947 44.1243 23.5254C43.8317 23.3985 43.5319 23.2889 43.2264 23.1973C43.1958 23.3194 43.0506 23.3842 42.8825 23.3384C42.8087 23.3249 42.7412 23.2878 42.6903 23.2328C42.6393 23.1777 42.6075 23.1077 42.5997 23.0332C42.4622 23.0027 42.3208 22.9798 42.1756 22.9569C42.0304 22.934 41.9119 22.9187 41.7935 22.9035C41.7935 23.0332 41.6903 23.1324 41.526 23.121C41.4483 23.1191 41.373 23.0936 41.3102 23.0479C41.2474 23.0023 41.2001 22.9386 41.1744 22.8653C40.8885 22.8617 40.6027 22.8757 40.3185 22.9073C40.3323 22.9366 40.3387 22.9689 40.3371 23.0013C40.3355 23.0336 40.326 23.0651 40.3094 23.093C40.2928 23.1208 40.2697 23.1442 40.2419 23.1611C40.2142 23.1779 40.1828 23.1877 40.1504 23.1896C40.0721 23.1996 39.9926 23.1873 39.921 23.1543C39.8493 23.1212 39.7885 23.0687 39.7454 23.0027C39.4766 23.0604 39.2133 23.1408 38.9582 23.2431C38.9807 23.2663 38.9973 23.2946 39.0066 23.3255C39.0159 23.3565 39.0176 23.3892 39.0116 23.421C39.0056 23.4528 38.9921 23.4826 38.9722 23.5081C38.9522 23.5336 38.9265 23.5539 38.8971 23.5674C38.8237 23.5932 38.7444 23.5976 38.6686 23.5801C38.5928 23.5625 38.5236 23.5237 38.4691 23.4682C38.2694 23.5781 38.0802 23.7058 37.9036 23.8497C37.9325 23.8665 37.9572 23.8896 37.9759 23.9172C37.9946 23.9449 38.0068 23.9764 38.0116 24.0094C38.0164 24.0425 38.0136 24.0762 38.0035 24.108C37.9934 24.1398 37.9762 24.1689 37.9533 24.1931C37.8923 24.2378 37.8187 24.2619 37.7431 24.2619C37.6675 24.2619 37.5939 24.2378 37.5329 24.1931C37.3721 24.3583 37.2275 24.5384 37.1012 24.7312C37.1676 24.7561 37.2215 24.806 37.2515 24.8702C37.2815 24.9344 37.2852 25.0077 37.2616 25.0746C37.2168 25.1297 37.1541 25.1675 37.0843 25.1814C37.0146 25.1953 36.9422 25.1845 36.8795 25.1509C36.7843 25.3651 36.7125 25.589 36.6655 25.8186C36.7381 25.8348 36.8031 25.8748 36.8502 25.9322C36.8973 25.9896 36.9238 26.0611 36.9254 26.1353C36.9063 26.2612 36.7649 26.3299 36.6006 26.2994C36.6006 26.4062 36.6006 26.5169 36.6006 26.6313C36.6006 26.7458 36.6006 26.8412 36.6235 26.948C36.6999 26.9538 36.7728 26.9823 36.8328 27.0299C36.8928 27.0776 36.937 27.1421 36.9598 27.2151C36.9865 27.3525 36.8795 27.4517 36.719 27.4517C36.7787 27.6977 36.8606 27.9378 36.9636 28.169C37.0396 28.1654 37.1152 28.1823 37.1824 28.2179C37.2496 28.2535 37.306 28.3064 37.3457 28.3713C37.3616 28.3994 37.3703 28.431 37.3712 28.4632C37.3721 28.4955 37.3651 28.5275 37.3508 28.5564C37.3364 28.5854 37.3153 28.6104 37.2891 28.6293C37.2629 28.6483 37.2325 28.6605 37.2005 28.6651C37.3433 28.912 37.5042 29.1479 37.682 29.371C37.7576 29.3493 37.8378 29.3492 37.9135 29.3708C37.9891 29.3924 38.0572 29.4348 38.1099 29.4931C38.1344 29.5145 38.1534 29.5414 38.1655 29.5716C38.1776 29.6018 38.1823 29.6345 38.1793 29.6668C38.1763 29.6992 38.1657 29.7304 38.1484 29.7579C38.131 29.7854 38.1073 29.8084 38.0794 29.825C38.2656 30.021 38.4634 30.2058 38.6716 30.3783C38.7386 30.3411 38.8152 30.3248 38.8915 30.3316C38.9678 30.3384 39.0403 30.368 39.0996 30.4165C39.2333 30.5157 39.2639 30.6683 39.176 30.7599C39.4224 30.933 39.6775 31.0934 39.9402 31.2406C39.9887 31.1904 40.0524 31.1576 40.1215 31.1472C40.1906 31.1369 40.2612 31.1496 40.3223 31.1834C40.3905 31.2062 40.4476 31.2538 40.4823 31.3167C40.517 31.3796 40.5267 31.4533 40.5096 31.523C40.8025 31.6501 41.1023 31.7609 41.4075 31.855C41.4343 31.7329 41.5833 31.668 41.7476 31.71C41.8219 31.7224 41.8901 31.7591 41.9412 31.8143C41.9924 31.8696 42.0238 31.9402 42.0304 32.0152C42.1705 32.0457 42.3119 32.0724 42.4545 32.0953C42.5882 32.1144 42.7182 32.1335 42.8366 32.1449C42.8366 32.0152 42.936 31.9198 43.1003 31.9313C43.1781 31.9321 43.2539 31.9566 43.3174 32.0016C43.3809 32.0467 43.4292 32.11 43.4556 32.1831C43.7463 32.1798 44.0363 32.1542 44.323 32.1068C44.3091 32.0777 44.3026 32.0456 44.3041 32.0134C44.3056 31.9812 44.3152 31.9499 44.3319 31.9222C44.3485 31.8946 44.3718 31.8716 44.3996 31.8552C44.4274 31.8388 44.4589 31.8295 44.4912 31.8282C44.5691 31.8175 44.6485 31.8289 44.7202 31.8613C44.7919 31.8938 44.8529 31.9458 44.8962 32.0114C45.1641 31.9521 45.4272 31.873 45.6833 31.7748C45.6607 31.7519 45.6439 31.7238 45.6343 31.693C45.6248 31.6623 45.6227 31.6297 45.6283 31.5979C45.6339 31.5662 45.647 31.5363 45.6666 31.5106C45.6861 31.485 45.7115 31.4644 45.7407 31.4505C45.8135 31.4211 45.8937 31.4148 45.9703 31.4325C46.0469 31.4503 46.1162 31.4912 46.1686 31.5497C46.3671 31.4379 46.5562 31.3103 46.7341 31.1681C46.6157 31.0918 46.6157 30.9621 46.6959 30.8553Z" fill="#FFFEFF"/>
<path d="M42.3173 27.9326L42.1912 29.7145C42.1912 29.8595 42.4358 32.1336 42.4358 32.1336H42.4931C42.4931 32.1336 42.5886 29.9129 42.581 29.7679L42.3364 27.9288L42.3173 27.9326ZM42.665 27.2801L44.3731 26.3796C44.4992 26.2957 46.3295 24.9144 46.3295 24.9144L46.2874 24.8725C46.2874 24.8725 44.2164 26.0172 44.0903 26.1164L42.665 27.2801ZM41.962 27.7609L40.2539 28.6652C40.124 28.7453 38.2937 30.1304 38.2937 30.1304L38.3357 30.1686C38.3357 30.1686 40.4106 29.0239 40.5367 28.9285L41.962 27.7609ZM41.9276 27.1771L40.3991 25.5593C40.2654 25.4334 38.1065 23.6057 38.1065 23.6057L38.0644 23.6324C38.0644 23.6324 40.0056 25.6089 40.1393 25.7348L41.9276 27.1771ZM42.3097 27.1122L42.4358 25.3265C42.4358 25.1815 42.1912 22.9112 42.1912 22.9112H42.1301C42.1301 22.9112 42.0384 25.1319 42.0422 25.2769L42.2867 27.1199L42.3097 27.1122ZM41.7938 27.448L39.5012 26.9405C39.3178 26.9138 36.4863 26.5971 36.4863 26.5971V26.6429C36.4863 26.6429 39.3254 27.2229 39.5088 27.2534L41.7938 27.448ZM42.6994 27.8677L44.2279 29.4894C44.3616 29.6115 46.5205 31.443 46.5205 31.443L46.5626 31.4163C46.5626 31.4163 44.6176 29.436 44.4839 29.3139L42.6994 27.8677ZM45.1144 27.8105L42.8217 27.5968L45.1144 28.1043C45.2978 28.1348 48.1292 28.4515 48.1292 28.4515V28.4057C48.1292 28.4057 45.2978 27.841 45.1144 27.8105ZM41.8053 27.3412L39.6311 26.3758C39.4515 26.311 36.6583 25.4028 36.6583 25.4028V25.4448C36.6583 25.4448 39.3713 26.5895 39.5508 26.6582L41.8053 27.3412ZM42.8217 27.7227L44.9997 28.6843C45.1793 28.753 47.9725 29.6611 47.9725 29.6611V29.6191C47.9725 29.6191 45.2557 28.4744 45.08 28.4019L42.8217 27.7227ZM42.7529 27.3984L44.8087 26.9596C44.9653 26.9138 47.3077 26.0629 47.3077 26.0629L47.2771 26.021C47.2771 26.021 44.7628 26.6124 44.6023 26.6582L42.7529 27.3984ZM42.1759 27.9097L41.4461 29.4932C41.4041 29.6229 40.8844 31.733 40.8844 31.733L40.9417 31.7521C40.9417 31.7521 41.7862 29.7679 41.8282 29.6344L42.2103 27.9173L42.1759 27.9097ZM42.0346 27.1466H42.0537L41.0296 25.3456C40.9341 25.2044 39.3254 23.0562 39.3254 23.0562H39.2757C39.2757 23.0562 40.5978 25.2731 40.6934 25.4143L42.0346 27.1466ZM42.4472 27.1733L43.1771 25.5898C43.2229 25.4563 43.7426 23.35 43.7426 23.35L43.6853 23.3271C43.6853 23.3271 42.8408 25.3151 42.795 25.4448L42.4128 27.1466L42.4472 27.1733ZM42.5924 27.9364H42.5733L43.5974 29.7374C43.6929 29.8786 45.2978 32.0268 45.2978 32.0268H45.3513C45.3513 32.0268 44.0253 29.8099 43.9336 29.6687L42.5924 27.9364ZM41.8741 27.6808L39.8183 28.1196C39.6617 28.1654 37.3193 29.0124 37.3193 29.0124L37.3499 29.0582C37.3499 29.0582 39.8642 28.4668 40.0247 28.4172L41.8741 27.6808ZM42.5542 27.2229L43.8266 25.9447C43.9145 25.834 45.1449 24.0368 45.1449 24.0368L45.0914 24.0063C45.0914 24.0063 43.563 25.6241 43.4828 25.7348L42.5542 27.2229ZM42.8102 27.5091L45.0609 27.5549C45.2366 27.5549 47.9152 27.2839 47.9152 27.2839V27.2382C47.9152 27.2382 45.1411 27.2382 44.9653 27.2382L42.8102 27.5091ZM42.0689 27.8601L40.8003 29.1383C40.7086 29.249 39.4821 31.0462 39.4821 31.0462L39.5317 31.0767C39.5317 31.0767 41.0602 29.4589 41.1404 29.3482L42.0689 27.8601ZM42.4511 27.9593L42.9019 29.8137C42.9516 29.9625 43.8954 32.2405 43.8954 32.2405H43.9413C43.9413 32.2405 43.3184 29.9511 43.2688 29.7946L42.4511 27.9593ZM42.1415 27.1199H42.1645L41.725 25.2388C41.6754 25.0938 40.7316 22.812 40.7316 22.812H40.6781C40.6781 22.812 41.2971 25.1014 41.3506 25.254L42.1415 27.1199ZM41.8015 27.5739L39.5508 27.5281C39.3751 27.5281 36.6927 27.7991 36.6927 27.7991V27.8487C36.6927 27.8487 39.463 27.8487 39.6387 27.8487L41.8015 27.5739ZM41.8359 27.2687L39.9253 25.9256C39.7648 25.8264 37.2009 24.3993 37.2009 24.3993L37.1741 24.4337C37.1741 24.4337 39.5738 26.0591 39.7343 26.1583L41.8359 27.2687ZM42.7567 27.8143L44.6673 29.1574C44.8278 29.2566 47.3879 30.6837 47.3879 30.6837L47.4185 30.6455C47.4185 30.6455 45.0188 29.0201 44.8583 28.9209L42.7567 27.8143Z" fill="#282057"/>
<path d="M43.093 27.6462C43.093 27.9858 42.7644 28.2071 42.3288 28.1384C42.1326 28.1191 41.9481 28.0363 41.8032 27.9027C41.6584 27.7691 41.5612 27.592 41.5264 27.3982C41.5264 27.0548 41.8588 26.8335 42.2906 26.9021C42.4873 26.9217 42.6723 27.005 42.8172 27.1393C42.9621 27.2737 43.0589 27.4517 43.093 27.6462Z" fill="#282057"/>
<path opacity="0.1" d="M63.8493 7.45763C63.2368 7.97854 62.4706 8.28537 61.6674 8.33141C59.7148 8.39246 58.4806 6.5724 56.998 5.17969C57.6935 7.72091 65.7331 37.0136 66.9711 38.0972C68.0907 39.074 63.2799 16.4931 63.8493 7.45763Z" fill="black"/>
<path opacity="0.1" d="M82.3429 42.443C77.7576 34.1859 74.4829 13.28 74.3683 17.8741C74.2728 21.6897 77.4939 36.2845 78.8619 42.2942C80.4286 43.0115 81.6971 42.8627 82.3429 42.443Z" fill="black"/>
<path opacity="0.1" d="M75.5226 42.7142C74.7087 39.345 73.9215 35.5942 72.951 33.1751C70.4711 26.9823 73.5203 36.4871 72.1524 46.7435C72.6136 46.875 73.1065 46.839 73.5437 46.642C73.9809 46.4451 74.334 46.0998 74.5405 45.6675C74.9494 44.9311 75.0411 44.0611 75.3047 43.2599C75.3642 43.073 75.437 42.8907 75.5226 42.7142Z" fill="black"/>
<path opacity="0.1" d="M45.5038 7.43039C40.5364 9.09401 34.7704 5.69046 30.3379 3.61475C32.0706 4.92044 33.729 6.32169 35.3053 7.81195C38.7863 11.1735 43.2112 11.4444 47.9149 6.15978C47.171 6.68796 46.3603 7.11522 45.5038 7.43039Z" fill="black"/>
<path d="M69.3519 119.325L72.1948 118.413C72.1948 118.413 77.7125 118.279 78.7939 119.87C79.8752 121.462 81.1171 120.828 80.7235 116.387C80.521 114.097 75.6911 110.381 72.3171 112.189C70.5472 113.109 68.8313 114.128 67.1777 115.242L69.3519 119.325Z" fill="#FFC280"/>
<path d="M75.3088 119.019L74.6248 118.836C74.6248 118.836 73.7269 115.444 74.5866 114.57C75.4463 113.696 75.7329 113.628 75.7329 113.628C74.68 112.781 73.3544 112.346 72.0035 112.403C71.7242 112.518 71.4535 112.654 71.1935 112.807C71.1757 112.728 71.1764 112.646 71.1957 112.567C71.2149 112.489 71.252 112.415 71.3043 112.353C71.8826 112.027 72.4856 111.746 73.1078 111.514C73.6428 111.377 75.6412 110.961 78.7287 112.937C81.8161 114.914 81.7473 117.203 81.6518 118.848C81.6059 119.573 81.4378 121.583 80.6698 121.587C79.7986 121.587 79.0152 121.034 78.3771 120.549C77.4656 119.842 76.4227 119.322 75.3088 119.019Z" fill="#282057"/>
<path d="M54.1592 110.247C54.1592 110.247 58.0261 123.938 65.6492 122.492C73.2723 121.046 74.9918 115.624 71.2356 113.971C67.4795 112.319 64.4838 113.655 64.4838 113.655L62.6267 107.603L54.1592 110.247Z" fill="#784300"/>
<path opacity="0.4" d="M64.4991 145C77.2751 145 87.632 143.208 87.632 140.998C87.632 138.787 77.2751 136.995 64.4991 136.995C51.7232 136.995 41.3662 138.787 41.3662 140.998C41.3662 143.208 51.7232 145 64.4991 145Z" fill="#A5B7C6"/>
<path d="M50.0553 130.108L50.9456 132.951C50.9456 132.951 51.0373 138.464 49.4172 139.533C47.797 140.601 48.439 141.822 52.8906 141.486C55.1832 141.303 58.947 136.507 57.1626 133.13C56.252 131.356 55.2416 129.635 54.1362 127.975L50.0553 130.108Z" fill="#FFC280"/>
<path d="M44.5225 112.235C44.5225 112.235 47.1972 128.238 49.1498 130.55C51.1024 132.863 55.7412 131.794 56.2723 129.307C56.8035 126.819 53.9606 112.59 53.9606 112.59L44.5225 112.235Z" fill="#784300"/>
<path d="M50.2995 136.056L50.4868 135.373C50.4868 135.373 53.8913 134.507 54.7587 135.373C55.6261 136.24 55.6949 136.518 55.6949 136.518C56.5514 135.476 56.9983 134.157 56.952 132.809C56.8427 132.529 56.7151 132.256 56.5699 131.993C56.6491 131.976 56.7311 131.979 56.8093 131.999C56.8875 132.02 56.9599 132.058 57.0208 132.111C57.3431 132.691 57.619 133.296 57.8462 133.92C57.9799 134.454 58.3811 136.453 56.3789 139.521C54.3766 142.589 52.0649 142.49 50.4371 142.379C49.7111 142.329 47.7012 142.146 47.7012 141.379C47.7012 140.506 48.2667 139.731 48.7596 139.09C49.4661 138.189 49.9892 137.158 50.2995 136.056Z" fill="#282057"/>
<path d="M29.1195 81.8975L27.3809 88.365C27.3809 88.365 39.2912 92.0318 47.5027 89.9637C47.5027 89.9637 48.6185 89.3647 48.6185 88.2314C48.6185 87.0982 48.4848 84.8317 48.4848 84.8317C48.4848 84.8317 40.7356 86.232 29.1195 81.8975Z" fill="#BDD8E5"/>
<path d="M47.2462 86.0862C47.2462 86.0862 38.4195 101.646 45.1484 119.282C45.1484 119.282 52.5996 122.957 62.3625 115.715L61.1626 111.613L63.3712 114.81L66.0651 112.212C66.0651 112.212 58.5146 99.9294 55.5953 89.6538C53.8452 83.4801 51.6519 76.902 47.2462 86.0862Z" fill="#D6F1FF"/>
<path d="M48.9321 83.6523L47.6826 88.1891L52.4017 85.0756L48.9321 83.6523Z" fill="#EDA05A"/>
<path d="M43.0703 99.2848C47.2735 97.5792 52.0652 95.2097 54.1821 91.7412C54.1821 91.7412 53.2574 87.1167 50.8806 88.1622C50.2578 88.4369 48.588 89.5701 45.9132 90.8026C44.6748 93.5244 43.7221 96.3669 43.0703 99.2848Z" fill="#BDD8E5"/>
<path d="M54.3612 90.1428C53.8262 86.766 50.4369 89.3415 50.4369 89.3415C44.0167 92.5772 36.797 93.8916 29.6463 93.1267C28.4503 90.9861 26.9716 91.1463 26.9716 91.1463L27.3537 92.6726C27.3537 92.6726 27.0671 93.2755 25.8252 93.5502C25.6552 93.5901 25.4765 93.5677 25.3215 93.4872C25.1666 93.4067 25.0457 93.2733 24.9808 93.1114L24.9426 92.9588C24.2454 93.3069 23.6174 93.7789 23.0893 94.3515C23.032 94.4163 22.6346 95.9006 23.1161 96.5989C23.4371 97.0606 23.9032 97.2018 23.9338 97.301C24.2471 98.2358 25.5196 100.918 25.5539 100.918C26.9066 100.945 29.7571 100.208 30.6207 98.5372C37.4949 99.8613 54.8579 93.2907 54.3612 90.1428Z" fill="#FFC280"/>
<path d="M24.8893 84.9414C24.6218 84.0981 24.0448 84.0066 24.0448 84.0066C24.0448 84.0066 24.2626 82.8619 23.5595 82.4269C24.2129 80.5191 21.5496 79.672 21.5496 79.672L21.2172 78.6074C21.2172 78.6074 18.6571 78.7181 18.2559 80.5381C18.1603 80.9693 18.2062 81.9995 18.5004 82.362C18.9139 82.7799 19.4348 83.0757 20.0059 83.2167C20.0671 84.3309 20.3536 86.3913 21.6375 86.8072C23.4182 87.3872 25.1568 85.7846 24.8893 84.9414Z" fill="#FFC280"/>
<path d="M51.6713 74.0372C51.0523 76.1587 49.2449 77.498 47.6324 77.0287C46.0199 76.5594 45.2213 74.457 45.8404 72.3355C46.4594 70.214 48.2667 68.8785 49.8792 69.3478C51.4917 69.8171 52.2942 71.9157 51.6713 74.0372Z" fill="#EDA05A"/>
<path d="M51.4227 60.6244C51.4227 60.6244 47.7621 61.8683 47.6819 63.738C47.6016 65.6076 47.7697 72.8039 47.7697 72.8039C47.7697 72.8039 57.8307 62.8489 56.4054 61.5135C54.9801 60.178 51.4227 60.6244 51.4227 60.6244Z" fill="#5B3102"/>
<path d="M67.9296 75.6047C67.5802 75.3701 67.1827 75.2165 66.7662 75.1551C66.3497 75.0937 65.9247 75.1261 65.5223 75.2499C65.9023 72.5484 65.3533 69.7981 63.9652 67.4486C62.577 65.0991 60.4318 63.2892 57.8801 62.3148L57.6967 62.25C56.8016 61.9302 55.846 61.8149 54.9004 61.9126C53.9548 62.0104 53.0431 62.3186 52.2325 62.8146C51.4219 63.3107 50.7331 63.9819 50.2166 64.779C49.7002 65.576 49.3693 66.4786 49.2483 67.4202C49.1743 68.0807 49.0465 68.734 48.8662 69.3738C48.3163 71.2619 47.3083 72.9854 45.9316 74.3914C43.4364 76.944 43.6389 81.0993 46.5047 83.2131C48.7411 84.8523 51.4759 85.6698 54.2464 85.5273C57.0169 85.3848 59.653 84.291 61.7089 82.4309C61.881 82.7314 62.1155 82.9916 62.3967 83.194C63.8831 84.2739 66.3248 83.4459 67.8532 81.3473C69.3816 79.2487 69.416 76.6846 67.9296 75.6047Z" fill="#FFC280"/>
<path d="M66.8037 77.2457C66.3535 77.2415 65.9108 77.3614 65.5245 77.5923C65.1382 77.8233 64.8232 78.1562 64.6143 78.5545C63.7813 79.9777 65.4434 79.7679 64.8856 80.718C64.3277 81.668 63.6628 81.3323 63.6628 81.3323C63.6628 81.3323 63.4909 81.9275 64.427 82.042C66.5095 82.3014 68.9206 77.8638 66.8037 77.2457Z" fill="#EDA05A"/>
<path d="M49.8908 73.3921C50.8117 73.663 51.4192 75.1092 51.4574 75.0099C51.7287 74.0904 51.1021 73.1021 50.0665 72.7969C49.031 72.4916 48.2745 72.8198 48.0681 73.5218C48.0375 73.6249 48.9661 73.125 49.8908 73.3921Z" fill="#784300"/>
<path d="M56.8905 76.1208C57.754 76.5443 58.117 78.0744 58.1629 77.979C58.3494 77.5265 58.3493 77.0186 58.1625 76.5662C57.9757 76.1138 57.6173 75.7534 57.1656 75.5637C56.195 75.0906 55.064 75.3996 54.6437 76.262C54.5978 76.3688 56.0269 75.7011 56.8905 76.1208Z" fill="#784300"/>
<path d="M47.3798 76.5894C49.8607 78.088 52.6558 78.9918 55.5455 79.2298C55.5455 79.2298 53.1115 83.7475 49.0229 81.71C44.9343 79.6724 47.3798 76.5894 47.3798 76.5894Z" fill="#911010"/>
<path d="M49.8068 76.4941C49.7533 76.8756 49.5928 75.3227 49.9596 74.9068C50.3265 74.4909 51.4652 75.3456 51.4652 75.3456L52.6535 74.3726L51.4537 75.8645C51.4537 75.8645 50.0819 74.4794 49.8068 76.4941Z" fill="#784300"/>
<path d="M48.7148 71.5106C48.7148 71.5106 49.544 70.778 52.4251 72.2203C52.4251 72.2203 52.299 71.0756 52.2723 71.0756C50.6598 70.2362 48.7836 70.4041 48.7148 71.5106Z" fill="#784300"/>
<path d="M59.4055 75.7233C59.4055 75.7233 59.2985 74.6321 56.3486 73.8422C56.3486 73.8422 57.1816 73.0791 57.2122 73.0791C58.8706 73.5026 60.0818 74.8419 59.4055 75.7233Z" fill="#784300"/>
<path d="M22.2647 80.1421C22.2647 80.1421 21.149 82.7176 21.9514 83.1946C22.7538 83.6716 23.6862 82.5688 23.6862 82.5688L22.8876 81.4241L22.2647 80.1421Z" fill="#FBAD5F"/>
<path d="M25.9134 77.8525C25.1874 77.1847 22.3063 78.7186 22.3063 78.7186C22.3063 78.7186 21.1944 82.3206 22.0847 82.809C23.3686 83.511 24.4423 81.2522 24.4423 81.2522C24.4423 81.2522 24.8435 84.4535 25.5122 84.9877C26.1809 85.5219 28.3818 82.519 27.9844 81.3171C27.5631 80.0217 26.8553 78.8375 25.9134 77.8525Z" fill="#FFC280"/>
<path d="M30.8918 92.6383C30.8918 92.6383 29.7454 97.9802 32.6304 100.907C32.6304 100.907 49.5502 98.1443 55.427 90.41C55.427 90.41 55.6716 85.9648 53.2031 86.7661C51.6556 87.2659 43.8491 93.8365 30.8918 92.6383Z" fill="#D6F1FF"/>
<path d="M53.2574 81.6263C52.58 81.2424 51.8144 81.0405 51.0354 81.0405C50.2565 81.0405 49.4909 81.2424 48.8135 81.6263L49.0236 81.7408C49.6763 82.0977 50.4122 82.2751 51.156 82.255C51.8999 82.2349 52.625 82.0179 53.2574 81.6263Z" fill="#FF675F"/>
<path d="M48.0567 76.9785C47.8772 77.3601 47.6746 77.9324 47.816 78.272C48.0376 78.852 51.9543 80.1417 52.9783 80.0081C53.2318 79.9437 53.4687 79.8264 53.6735 79.6639C53.8783 79.5015 54.0464 79.2976 54.1667 79.0657C52.027 78.7178 49.9614 78.0122 48.0567 76.9785Z" fill="#F9FBFC"/>
<path d="M72.516 64.5398C71.2856 62.0749 68.0492 63.3035 68.0492 63.3035C69.8336 60.5486 66.8302 59.2627 66.8302 59.2627C67.6747 59.9572 67.1932 61.285 66.6697 62.2466C62.6385 59.5756 55.8637 58.1104 51.6184 59.1712C48.4393 59.9648 45.3366 62.8037 45.6805 66.1042C45.9441 68.6836 46.5249 68.9049 46.5249 68.9049C46.5249 68.9049 46.823 65.0892 51.2784 63.3569C48.9857 66.0279 49.9716 69.3589 49.9716 69.3589C50.0098 66.1996 52.2986 64.3147 53.7697 63.4294C54.1174 64.9061 55.3669 68.4813 59.7115 72.0871L59.5319 69.5345C59.5319 69.5345 61.4425 73.4302 62.5888 74.5978C63.7351 75.7654 62.0004 79.1499 62.0004 79.1499C62.0004 79.1499 64.7057 76.9673 65.5158 75.2617C65.5158 75.2617 66.964 74.9908 67.9231 75.6166C67.9231 75.6166 71.9429 68.5271 69.1267 64.5169L72.516 64.5398Z" fill="#784300"/>
</svg>
