<svg width="20" height="23" viewBox="0 0 20 23" fill="none" xmlns="http://www.w3.org/2000/svg">
<path fill-rule="evenodd" clip-rule="evenodd" d="M11.0737 1.88407V4.29724C11.118 4.87314 11.32 5.32566 11.6746 5.62676C12.0417 5.93899 12.5907 6.11403 13.3173 6.12694L15.0152 6.12515L11.0737 1.88407ZM15.1576 7.25069L13.3085 7.2489C12.3015 7.23332 11.508 6.96385 10.9398 6.48103C10.3475 5.97729 10.0139 5.26287 9.94628 4.37742L9.94135 4.29992V1.31441H3.00347C2.5405 1.31441 2.11918 1.5028 1.8147 1.80568C1.51023 2.10855 1.32083 2.52768 1.32083 2.98822V17.9755C1.32083 18.4342 1.51113 18.8534 1.81604 19.1567C2.12051 19.4595 2.54229 19.6488 3.00347 19.6488H8.35005C8.46377 20.0403 8.61287 20.4171 8.79421 20.7752H3.00347C2.22977 20.7752 1.52501 20.4599 1.01502 19.953C0.505482 19.4457 0.188477 18.7451 0.188477 17.9755V2.98822C0.188477 2.21945 0.505482 1.51929 1.01458 1.01243C1.52679 0.503335 2.23067 0.187988 3.00347 0.187988H10.7889C10.973 0.187988 11.1364 0.275282 11.2398 0.410682L16.1378 5.68154C16.238 5.78978 16.2873 5.92606 16.2873 6.06236L16.2886 11.3947C15.9223 11.3069 15.5444 11.2499 15.1576 11.2259V7.25069ZM4.87014 9.67767C4.55761 9.67767 4.30419 9.42557 4.30419 9.11468C4.30419 8.80335 4.55761 8.55125 4.87014 8.55125H11.6083C11.9209 8.55125 12.1747 8.80335 12.1747 9.11468C12.1747 9.42557 11.9209 9.67767 11.6083 9.67767H4.87014ZM4.87014 12.8979C4.55761 12.8979 4.30419 12.6458 4.30419 12.3345C4.30419 12.0236 4.55761 11.7715 4.87014 11.7715H11.2515C11.4176 11.7715 11.5671 11.8428 11.671 11.9563C11.1775 12.2122 10.7181 12.5286 10.3036 12.8979H4.87014ZM4.87014 16.1181C4.55761 16.1181 4.30419 15.866 4.30419 15.5547C4.30419 15.2438 4.55761 14.9917 4.87014 14.9917H8.72974C8.55869 15.3502 8.41855 15.727 8.31378 16.1181H4.87014Z" fill="#404040"/>
<path fill-rule="evenodd" clip-rule="evenodd" d="M3.00306 0.37613C2.28245 0.37613 1.62559 0.670004 1.14681 1.14582C0.671259 1.61931 0.37613 2.27223 0.37613 2.98829V17.9756C0.37613 18.6925 0.671307 19.3459 1.14729 19.8198C1.62369 20.2933 2.28137 20.5873 3.00306 20.5873H8.49546C8.38595 20.3443 8.2905 20.0938 8.20998 19.8369H3.00306C2.48971 19.8369 2.02093 19.6262 1.68301 19.2901C1.34469 18.9536 1.13235 18.4871 1.13235 17.9756V2.98829C1.13235 2.47523 1.34349 2.00881 1.68165 1.67243C2.01981 1.33605 2.48822 1.12642 3.00306 1.12642H10.129V4.29402L10.1335 4.36433C10.1981 5.2079 10.5135 5.87202 11.0612 6.3378C11.5877 6.78521 12.3348 7.0456 13.3096 7.06091C13.3101 7.06092 13.3105 7.06093 13.311 7.06094L15.3453 7.06288V11.0515C15.6011 11.074 15.8529 11.1106 16.1001 11.1606L16.0988 6.06249C16.0988 5.97184 16.0663 5.88166 15.9995 5.80948C15.9995 5.80945 15.9995 5.8095 15.9995 5.80948L11.0955 0.532132L11.09 0.524922C11.0207 0.434283 10.9117 0.37613 10.7885 0.37613H3.00306ZM0.881593 0.879115C1.42725 0.33679 2.1781 0 3.00306 0H10.7885C11.0299 0 11.245 0.113128 11.3829 0.288907L16.2752 5.5536C16.4087 5.69786 16.4749 5.8805 16.475 6.0624C16.475 6.06238 16.475 6.06241 16.475 6.0624L16.4763 11.6332L16.2444 11.5776C15.8887 11.4924 15.5215 11.437 15.1456 11.4137L14.9692 11.4027V7.43865L13.3051 7.43704C12.2667 7.42097 11.4273 7.14244 10.8176 6.62442C10.1809 6.08292 9.8291 5.31858 9.75835 4.39181L9.75816 4.38943L9.75287 4.30597V1.50255H3.00306C2.59196 1.50255 2.21772 1.66971 1.94691 1.93909C1.67614 2.20845 1.50848 2.58028 1.50848 2.98829V17.9756C1.50848 18.3813 1.67675 18.7534 1.94826 19.0235C2.21928 19.293 2.59406 19.4608 3.00306 19.4608H8.49085L8.53024 19.5964C8.64069 19.9767 8.78549 20.3426 8.96159 20.6904L9.09981 20.9634H3.00306C2.1774 20.9634 1.42561 20.6268 0.882026 20.0865C0.338944 19.5458 0 18.7978 0 17.9756V2.98829C0 2.16685 0.338978 1.41935 0.881593 0.879115ZM10.8852 1.40553L15.4459 6.31284L13.3136 6.31509C12.5615 6.30172 11.9642 6.12032 11.5523 5.7701C11.1501 5.42849 10.9329 4.92371 10.8858 4.31175L10.8852 4.30455V1.40553ZM11.2614 2.36276V4.28998C11.304 4.82617 11.4903 5.22404 11.7959 5.48347C12.1181 5.75748 12.6183 5.92624 13.3185 5.93895L14.5837 5.93762L11.2614 2.36276ZM4.86973 8.73939C4.66023 8.73939 4.49185 8.90812 4.49185 9.11476C4.49185 9.32085 4.66014 9.48968 4.86973 9.48968H11.6079C11.8177 9.48968 11.9862 9.32067 11.9862 9.11476C11.9862 8.90831 11.8176 8.73939 11.6079 8.73939H4.86973ZM4.11572 9.11476C4.11572 8.69873 4.45417 8.36326 4.86973 8.36326H11.6079C12.0233 8.36326 12.3623 8.69855 12.3623 9.11476C12.3623 9.53062 12.0232 9.86581 11.6079 9.86581H4.86973C4.45426 9.86581 4.11572 9.53044 4.11572 9.11476ZM4.86973 11.9596C4.66015 11.9596 4.49185 12.1284 4.49185 12.3346C4.49185 12.5412 4.66024 12.7099 4.86973 12.7099H10.2321C10.5553 12.428 10.9043 12.1771 11.2743 11.9603C11.2666 11.9598 11.2589 11.9596 11.251 11.9596H4.86973ZM4.11572 12.3346C4.11572 11.9189 4.45425 11.5835 4.86973 11.5835H11.251C11.4721 11.5835 11.6714 11.6786 11.8093 11.8294L11.9749 12.0104L11.7572 12.1233C11.2776 12.3721 10.8311 12.6795 10.4283 13.0384L10.3748 13.0861H4.86973C4.45416 13.0861 4.11572 12.7506 4.11572 12.3346ZM4.86973 15.1798C4.66015 15.1798 4.49185 15.3487 4.49185 15.5548C4.49185 15.7614 4.66024 15.9302 4.86973 15.9302H8.17067C8.24546 15.6734 8.33509 15.4229 8.43834 15.1798H4.86973ZM4.11572 15.5548C4.11572 15.1391 4.45425 14.8037 4.86973 14.8037H9.02741L8.89907 15.0727C8.73288 15.4211 8.59676 15.7871 8.49503 16.1669L8.45769 16.3063H4.86973C4.45417 16.3063 4.11572 15.9708 4.11572 15.5548Z" fill="#404040"/>
<path fill-rule="evenodd" clip-rule="evenodd" d="M14.7178 22.9935C17.5985 22.9935 19.9337 20.688 19.9337 17.8439C19.9337 14.9998 17.5985 12.6943 14.7178 12.6943C11.8372 12.6943 9.50195 14.9998 9.50195 17.8439C9.50195 20.688 11.8372 22.9935 14.7178 22.9935ZM16.1709 17.4367C16.3971 17.4367 16.5806 17.2602 16.5806 17.0426C16.5806 16.8245 16.3975 16.6484 16.1709 16.6484H15.7106C15.6598 16.4345 15.5722 16.2341 15.4488 16.0572H16.1709C16.3971 16.0572 16.5806 15.8807 16.5806 15.6632C16.5806 15.4455 16.3971 15.2691 16.1709 15.2691H12.8924C12.6662 15.2691 12.4826 15.4455 12.4826 15.6632C12.4826 15.8807 12.6662 16.0572 12.8924 16.0572H13.917C14.3357 16.0572 14.6955 16.3011 14.8544 16.6484H12.8924C12.6662 16.6484 12.4826 16.8249 12.4826 17.0426C12.4826 17.2602 12.6662 17.4367 12.8924 17.4367H14.8546C14.696 17.784 14.3359 18.0277 13.917 18.0277H12.8924C12.7143 18.0277 12.5564 18.1276 12.5023 18.3012C12.4477 18.465 12.5092 18.6325 12.6431 18.7427L15.5117 20.7132C15.5838 20.7626 15.6671 20.7866 15.7495 20.7866C15.8775 20.7866 16.0146 20.7287 16.0935 20.6207C16.225 20.4437 16.1823 20.1975 15.998 20.071L14.1501 18.8012C14.9207 18.7076 15.5394 18.1533 15.7099 17.4367H16.1709Z" fill="#404040"/>
</svg>
