<svg width="19" height="21" viewBox="0 0 19 21" fill="none" xmlns="http://www.w3.org/2000/svg">
<path d="M2.57207 5.49081C3.94296 5.49081 5.05429 4.37948 5.05429 3.00859C5.05429 1.6377 3.94296 0.526367 2.57207 0.526367C1.20117 0.526367 0.0898438 1.6377 0.0898438 3.00859C0.0898438 4.37948 1.20117 5.49081 2.57207 5.49081Z" fill="#404040"/>
<path fill-rule="evenodd" clip-rule="evenodd" d="M3.39941 7.97291C3.39941 7.51595 3.76986 7.14551 4.22682 7.14551H10.0187C10.4756 7.14551 10.8461 7.51595 10.8461 7.97291C10.8461 8.42988 10.4756 8.80032 10.0187 8.80032H4.22682C3.76986 8.80032 3.39941 8.42988 3.39941 7.97291Z" fill="#404040"/>
<path d="M5.05429 19.5293C5.05429 20.0009 4.6712 20.384 4.19958 20.384C3.74947 20.384 3.3763 20.0349 3.34652 19.5856L2.98411 14.1495C2.96922 13.9336 2.78967 13.7648 2.57207 13.7648C2.35446 13.7648 2.17491 13.9336 2.16002 14.1503L1.79761 19.5864C1.76783 20.0349 1.39466 20.384 0.944555 20.384C0.472933 20.384 0.0898438 20.0009 0.0898438 19.5293V8.80032C0.0898438 7.88604 0.830373 7.14551 1.74466 7.14551H6.7091V8.80032H5.88169C5.42497 8.80032 5.05429 9.171 5.05429 9.62773V19.5293Z" fill="#404040"/>
<path fill-rule="evenodd" clip-rule="evenodd" d="M6.70898 2.18115H17.4653C17.9222 2.18115 18.2927 2.5516 18.2927 3.00856V12.9374C18.2927 13.3944 17.9222 13.7649 17.4653 13.7649H6.70898V12.11H16.6379V3.83597H6.70898V2.18115Z" fill="#404040"/>
<path fill-rule="evenodd" clip-rule="evenodd" d="M10.846 1.35352C11.3029 1.35352 11.6734 1.72396 11.6734 2.18092V3.00833C11.6734 3.46529 11.3029 3.83574 10.846 3.83574C10.389 3.83574 10.0186 3.46529 10.0186 3.00833V2.18092C10.0186 1.72396 10.389 1.35352 10.846 1.35352Z" fill="#404040"/>
<path fill-rule="evenodd" clip-rule="evenodd" d="M9.39208 12.1348C9.8354 12.2456 10.1049 12.6948 9.9941 13.1381L8.33929 19.7574C8.22846 20.2007 7.77923 20.4703 7.33591 20.3594C6.89259 20.2486 6.62305 19.7994 6.73388 19.356L8.3887 12.7368C8.49953 12.2935 8.94876 12.0239 9.39208 12.1348Z" fill="#404040"/>
<path fill-rule="evenodd" clip-rule="evenodd" d="M12.2998 12.1348C12.7431 12.0239 13.1923 12.2935 13.3032 12.7368L14.958 19.356C15.0688 19.7994 14.7993 20.2486 14.3559 20.3594C13.9126 20.4703 13.4634 20.2007 13.3526 19.7574L11.6978 13.1381C11.5869 12.6948 11.8565 12.2456 12.2998 12.1348Z" fill="#404040"/>
</svg>
