<svg width="256" height="206" viewBox="0 0 256 206" fill="none" xmlns="http://www.w3.org/2000/svg">
<path d="M11.8103 189.077C11.8103 189.077 14.9998 182.12 11.3537 175.258C7.70771 168.396 6.65351 166.777 8.97677 165.374C11.3 163.971 12.3341 170.86 12.3341 170.86C13.4831 167.746 13.6031 164.345 12.6765 161.157C11.0583 156.195 10.0444 148.111 12.2535 147.245C14.4626 146.378 12.6698 157.317 14.5902 161.063C15.5641 158.441 16.1938 155.703 16.4636 152.918C16.7254 148.93 16.3158 142.565 18.0549 140.933C19.794 139.301 20.9154 140.429 19.2031 149.225C18.174 154.484 17.6056 159.822 17.5043 165.179C17.5043 165.179 21.2914 153.637 23.8295 153.301C26.3676 152.965 26.3676 156.699 24.1921 159.942C22.0165 163.185 17.8266 168.993 17.135 171.981C17.135 171.981 21.2914 163.293 25.0247 165.938C28.758 168.584 21.7748 173.841 18.6592 175.741C15.5437 177.642 13.3816 189.513 13.3816 189.513L11.8103 189.077Z" fill="#0231C8"/>
<path opacity="0.2" d="M11.8103 189.077C11.8103 189.077 14.9998 182.12 11.3537 175.258C7.70771 168.396 6.65351 166.777 8.97677 165.374C11.3 163.971 12.3341 170.86 12.3341 170.86C13.4831 167.746 13.6031 164.345 12.6765 161.157C11.0583 156.195 10.0444 148.111 12.2535 147.245C14.4626 146.378 12.6698 157.317 14.5902 161.063C15.5641 158.441 16.1938 155.703 16.4636 152.918C16.7254 148.93 16.3158 142.565 18.0549 140.933C19.794 139.301 20.9154 140.429 19.2031 149.225C18.174 154.484 17.6056 159.822 17.5043 165.179C17.5043 165.179 21.2914 153.637 23.8295 153.301C26.3676 152.965 26.3676 156.699 24.1921 159.942C22.0165 163.185 17.8266 168.993 17.135 171.981C17.135 171.981 21.2914 163.293 25.0247 165.938C28.758 168.584 21.7748 173.841 18.6592 175.741C15.5437 177.642 13.3816 189.513 13.3816 189.513L11.8103 189.077Z" fill="black"/>
<path d="M14.3284 191.957C14.3284 191.957 11.2196 184.954 14.9462 178.145C18.6728 171.337 19.7471 169.739 17.444 168.302C15.1409 166.865 13.986 173.741 13.986 173.741C12.8732 170.609 12.7955 167.203 13.7644 164.025C15.4431 159.089 16.551 151.018 14.3553 150.119C12.1596 149.219 13.8114 160.19 11.8507 163.904C10.9073 161.268 10.3092 158.521 10.0714 155.732C9.8565 151.744 10.3467 145.385 8.62101 143.726C6.89536 142.068 5.7673 143.182 7.37881 151.999C8.34374 157.269 8.84701 162.614 8.88288 167.973C8.88288 167.973 5.23685 156.377 2.70544 156.007C0.174032 155.638 0.127028 159.365 2.26227 162.641C4.39752 165.918 8.52029 171.78 9.17161 174.781C9.17161 174.781 5.14284 166.052 1.3558 168.644C-2.43124 171.236 4.51167 176.594 7.60039 178.542C10.6891 180.489 12.7169 192.394 12.7169 192.394L14.3284 191.957Z" fill="#0231C8"/>
<path d="M0 186.962H25.6565L23.5817 205.326H2.08153L0 186.962Z" fill="#263238"/>
<path d="M249.945 49.2783H230.654C229.874 49.2783 229.102 49.4321 228.381 49.7308C227.66 50.0295 227.006 50.4673 226.454 51.0192C225.903 51.5711 225.466 52.2263 225.168 52.9472C224.87 53.6681 224.717 54.4407 224.718 55.2207V61.7608L218.749 63.614L224.718 65.4672V72.0073C224.717 72.7873 224.87 73.5599 225.168 74.2808C225.466 75.0018 225.903 75.6569 226.454 76.2088C227.006 76.7607 227.66 77.1985 228.381 77.4972C229.102 77.796 229.874 77.9497 230.654 77.9497H249.945C251.521 77.9497 253.033 77.3236 254.147 76.2092C255.261 75.0948 255.888 73.5833 255.888 72.0073V55.2207C255.888 53.6447 255.261 52.1332 254.147 51.0188C253.033 49.9044 251.521 49.2783 249.945 49.2783Z" fill="#0231C8"/>
<path opacity="0.7" d="M249.945 49.2783H230.654C229.874 49.2783 229.102 49.4321 228.381 49.7308C227.66 50.0295 227.006 50.4673 226.454 51.0192C225.903 51.5711 225.466 52.2263 225.168 52.9472C224.87 53.6681 224.717 54.4407 224.718 55.2207V61.7608L218.749 63.614L224.718 65.4672V72.0073C224.717 72.7873 224.87 73.5599 225.168 74.2808C225.466 75.0018 225.903 75.6569 226.454 76.2088C227.006 76.7607 227.66 77.1985 228.381 77.4972C229.102 77.796 229.874 77.9497 230.654 77.9497H249.945C251.521 77.9497 253.033 77.3236 254.147 76.2092C255.261 75.0948 255.888 73.5833 255.888 72.0073V55.2207C255.888 53.6447 255.261 52.1332 254.147 51.0188C253.033 49.9044 251.521 49.2783 249.945 49.2783Z" fill="white"/>
<path d="M247.144 70.3858C250.883 66.6465 250.883 60.5839 247.144 56.8446C243.404 53.1054 237.342 53.1054 233.603 56.8447C229.863 60.5839 229.863 66.6465 233.603 70.3858C237.342 74.1251 243.404 74.1251 247.144 70.3858Z" fill="#0231C8"/>
<path d="M239.37 67.891C239.242 67.8913 239.116 67.8639 239 67.8105C238.884 67.7572 238.781 67.6793 238.699 67.5821L234.938 63.1572C234.787 62.9791 234.713 62.7482 234.731 62.5153C234.75 62.2823 234.861 62.0664 235.039 61.915C235.217 61.7636 235.448 61.6892 235.681 61.7081C235.914 61.727 236.13 61.8377 236.281 62.0157L239.37 65.6483L244.466 59.6455C244.541 59.5573 244.633 59.4847 244.736 59.432C244.839 59.3792 244.951 59.3472 245.067 59.3378C245.182 59.3285 245.298 59.342 245.408 59.3775C245.518 59.413 245.62 59.4698 245.709 59.5448C245.797 59.6197 245.869 59.7113 245.922 59.8143C245.975 59.9173 246.007 60.0296 246.016 60.145C246.026 60.2603 246.012 60.3764 245.977 60.4866C245.941 60.5967 245.884 60.6988 245.809 60.787L240.048 67.5821C239.964 67.6794 239.86 67.7574 239.743 67.8107C239.626 67.864 239.499 67.8914 239.37 67.891Z" fill="white"/>
<path d="M75.1633 6.379H55.879C54.3029 6.379 52.7914 7.00507 51.677 8.1195C50.5626 9.23392 49.9365 10.7454 49.9365 12.3214V29.108C49.9365 30.684 50.5626 32.1955 51.677 33.3099C52.7914 34.4243 54.3029 35.0504 55.879 35.0504H61.5058V41.0197L65.5346 35.0504H75.1969C76.7729 35.0504 78.2844 34.4243 79.3988 33.3099C80.5132 32.1955 81.1393 30.684 81.1393 29.108V12.3214C81.1393 11.5382 80.9845 10.7627 80.6838 10.0396C80.3831 9.31641 79.9423 8.65983 79.387 8.10758C78.8316 7.55533 78.1725 7.11832 77.4477 6.82167C76.7229 6.52501 75.9465 6.37458 75.1633 6.379Z" fill="#0231C8"/>
<path opacity="0.7" d="M75.1633 6.379H55.879C54.3029 6.379 52.7914 7.00507 51.677 8.1195C50.5626 9.23392 49.9365 10.7454 49.9365 12.3214V29.108C49.9365 30.684 50.5626 32.1955 51.677 33.3099C52.7914 34.4243 54.3029 35.0504 55.879 35.0504H61.5058V41.0197L65.5346 35.0504H75.1969C76.7729 35.0504 78.2844 34.4243 79.3988 33.3099C80.5132 32.1955 81.1393 30.684 81.1393 29.108V12.3214C81.1393 11.5382 80.9845 10.7627 80.6838 10.0396C80.3831 9.31641 79.9423 8.65983 79.387 8.10758C78.8316 7.55533 78.1725 7.11832 77.4477 6.82167C76.7229 6.52501 75.9465 6.37458 75.1633 6.379Z" fill="white"/>
<path d="M61.6935 29.2694L62.3649 29.82L63.54 28.645L62.9894 27.9735C63.3088 27.5082 63.5367 26.9864 63.6609 26.4359L64.5136 26.3553V24.7035L63.6609 24.6229C63.5367 24.0724 63.3088 23.5505 62.9894 23.0853L63.54 22.4138L62.3649 21.2387L61.6935 21.7893C61.2257 21.4818 60.704 21.2654 60.1558 21.1515L60.0753 20.292H58.4235L58.3429 21.1515C57.7965 21.2641 57.2767 21.4807 56.812 21.7893L56.1405 21.2387L54.9654 22.4138L55.516 23.0853C55.2085 23.5531 54.992 24.0748 54.8781 24.6229L54.0254 24.7035V26.362L54.8781 26.4426C54.992 26.9907 55.2085 27.5124 55.516 27.9802L54.9654 28.6517L56.1405 29.8267L56.812 29.2761C57.2767 29.5848 57.7965 29.8014 58.3429 29.914L58.4235 30.7735H60.082L60.1625 29.914C60.7088 29.7973 61.2282 29.5786 61.6935 29.2694ZM56.9932 25.5361C56.9932 25.0912 57.1252 24.6563 57.3723 24.2864C57.6195 23.9165 57.9708 23.6282 58.3818 23.4579C58.7929 23.2877 59.2451 23.2431 59.6815 23.3299C60.1178 23.4167 60.5186 23.631 60.8332 23.9455C61.1478 24.2601 61.362 24.6609 61.4488 25.0973C61.5356 25.5336 61.4911 25.9859 61.3208 26.3969C61.1506 26.8079 60.8623 27.1592 60.4923 27.4064C60.1224 27.6536 59.6875 27.7855 59.2426 27.7855C58.9473 27.7846 58.6549 27.7256 58.3823 27.6117C58.1098 27.4978 57.8623 27.3314 57.654 27.1219C57.4458 26.9124 57.2809 26.664 57.1686 26.3907C57.0564 26.1175 56.9991 25.8248 57 25.5294L56.9932 25.5361Z" fill="#0231C8"/>
<path d="M73.1014 23.9848L74.0616 24.7772L75.7537 23.0851L74.9614 22.1249C75.4048 21.4508 75.7169 20.699 75.8813 19.9091L77.1168 19.7949V17.3911L75.8813 17.2769C75.7169 16.487 75.4048 15.7352 74.9614 15.0611L75.7537 14.1009L74.0616 12.4021L73.1014 13.2012C72.4277 12.7556 71.6759 12.4413 70.8856 12.2746L70.7648 11.0391H68.3676L68.2535 12.2678C67.4632 12.4345 66.7114 12.7489 66.0377 13.1945L65.0775 12.3954L63.3787 14.0942L64.1777 15.0544C63.7322 15.7281 63.4178 16.4799 63.2511 17.2702L62.0156 17.3844V19.7882L63.2511 19.9024C63.4178 20.6927 63.7322 21.4444 64.1777 22.1182L63.3787 23.0784L65.0775 24.7704L66.0377 23.9781C66.7103 24.4243 67.4626 24.7367 68.2535 24.898L68.3676 26.1335H70.7648L70.8856 24.898C71.676 24.7387 72.4283 24.4287 73.1014 23.9848ZM66.3197 18.6131C66.3197 17.9704 66.5103 17.3421 66.8674 16.8076C67.2245 16.2732 67.7321 15.8566 68.3259 15.6107C68.9197 15.3647 69.5732 15.3003 70.2036 15.4257C70.834 15.5511 71.4131 15.8606 71.8676 16.3151C72.3221 16.7696 72.6316 17.3487 72.757 17.9791C72.8824 18.6095 72.818 19.263 72.5721 19.8568C72.3261 20.4507 71.9095 20.9582 71.3751 21.3153C70.8406 21.6724 70.2123 21.863 69.5696 21.863C69.1411 21.863 68.7168 21.7783 68.3212 21.6137C67.9256 21.4491 67.5664 21.208 67.2644 20.904C66.9624 20.6001 66.7234 20.2395 66.5613 19.8429C66.3991 19.4462 66.317 19.0215 66.3197 18.593V18.6131Z" fill="#0231C8"/>
<path d="M61.1914 70.5703C66.8384 71.8327 78.354 84.7449 78.354 84.7449L99.1692 86.8331L99.3908 91.7482C99.3908 91.7482 79.0321 92.1578 76.4 91.9093C73.7679 91.6609 61.2115 81.8979 61.2115 81.8979L61.1914 70.5703Z" fill="#0231C8"/>
<path opacity="0.7" d="M99.3835 91.7481C99.3835 91.7481 79.0315 92.1509 76.3994 91.9092C75.0565 91.7884 71.2627 89.2704 67.7845 86.786C66.0186 85.5303 64.34 84.2747 63.1179 83.3548C61.8958 82.4349 61.2109 81.8977 61.2109 81.8977V70.5635C66.8579 71.8325 78.3668 84.7447 78.3668 84.7447L99.1821 86.833L99.3835 91.7481Z" fill="white"/>
<path d="M98.7129 91.5469L104.897 91.0769L103.628 85.8059C103.628 85.8059 99.2568 85.5239 97.7393 88.8006L98.7129 91.5469Z" fill="#EBB376"/>
<path d="M108.63 88.7134L106.744 85.0137L103.628 85.806L104.897 91.077L108.63 88.7134Z" fill="#EBB376"/>
<path opacity="0.1" d="M67.7659 86.7855C66 85.5299 64.3213 84.2743 63.0993 83.3544C62.6231 81.9264 62.4627 80.412 62.6293 78.916C62.6293 78.916 66.9266 82.2666 67.7659 86.7855Z" fill="black"/>
<path d="M49.1651 199.941L43.5181 200.028C43.4259 200.032 43.3376 200.066 43.2672 200.126C43.1967 200.185 43.148 200.267 43.1287 200.357L42.3095 204.52C42.2901 204.609 42.2888 204.701 42.3059 204.79C42.323 204.879 42.358 204.964 42.4089 205.039C42.4597 205.115 42.5253 205.179 42.6018 205.228C42.6782 205.277 42.7638 205.311 42.8534 205.326H43.0011C44.8275 205.265 46.157 205.131 48.4534 205.098C49.8634 205.098 54.1272 205.151 56.0745 205.098C58.0217 205.044 58.25 203.137 57.451 202.969C53.8586 202.244 51.1459 201.21 49.9843 200.196C49.7552 200.007 49.4611 199.915 49.1651 199.941Z" fill="#263238"/>
<path d="M96.7524 199.941L91.1054 200.029C91.0132 200.033 90.9249 200.067 90.8544 200.127C90.7839 200.186 90.7352 200.267 90.716 200.358L89.8632 204.521C89.8438 204.61 89.8425 204.701 89.8596 204.791C89.8767 204.88 89.9117 204.965 89.9626 205.04C90.0134 205.115 90.079 205.18 90.1555 205.229C90.2319 205.278 90.3175 205.311 90.4071 205.326H90.5615C92.3879 205.266 93.7107 205.132 96.0071 205.098C97.4171 205.098 101.681 205.152 103.635 205.098C105.589 205.044 105.804 203.138 104.978 202.97C101.385 202.244 98.6728 201.21 97.5112 200.197C97.2982 200.021 97.0281 199.93 96.7524 199.941Z" fill="#263238"/>
<path d="M42.2559 200.229H49.9441C49.9441 200.229 59.734 167.959 60.58 159.727C61.4261 151.494 61.7282 130.854 61.7282 130.854V130.887C62.0572 131.331 64.9647 135.42 68.3086 140.16C72.6798 146.378 77.8097 153.724 78.8841 155.523C82.0601 160.821 89.8222 200.202 89.8222 200.202H97.5037C97.5037 200.202 95.5699 164.957 91.6217 153.341C87.6735 141.725 70.6049 116.357 69.8663 114.987C68.9196 113.255 66.5963 107.735 66.5963 107.735L43.5585 110.932C43.5585 110.932 43.8539 114.833 43.8808 118.244C43.9882 131.042 48.4199 148.345 48.8093 152.992C49.5681 161.862 42.2559 200.229 42.2559 200.229Z" fill="#263238"/>
<path d="M61.1914 70.5705C61.1914 70.5705 68.0873 82.8717 66.6235 107.756L43.5924 110.966C42.9209 107.447 42.7598 89.8884 37.0322 73.7062C39.5123 72.8605 42.0445 72.1764 44.613 71.6583C47.848 71.0241 51.1167 70.5757 54.4029 70.3153C56.6689 70.2246 58.9386 70.3099 61.1914 70.5705Z" fill="#0231C8"/>
<path opacity="0.7" d="M66.6235 107.755L48.0442 110.34L43.5924 110.958C43.1895 108.809 42.9679 101.376 41.5377 92.2176C41.5377 92.0229 41.4773 91.8215 41.4437 91.62C41.0408 89.1021 40.544 86.4632 39.9262 83.7707C39.1502 80.362 38.184 76.9994 37.0322 73.6987C39.5114 72.8666 42.0413 72.1937 44.6063 71.6844C47.843 71.047 51.1141 70.5986 54.4029 70.3414C56.6695 70.2613 58.9388 70.3534 61.1914 70.6167C61.1914 70.6167 68.0806 82.8642 66.6235 107.755Z" fill="white"/>
<path d="M46.8623 73.7071L52.3951 76.3326L53.6373 77.8433C53.6373 77.8433 55.6114 88.1301 55.4033 96.1877L57.4982 98.0476L59.0896 94.9455C59.0896 94.9455 55.7995 80.4486 54.7385 77.4875L55.0206 75.5805L55.9942 71.5518L47.2115 72.0956L46.8623 73.7071Z" fill="#263238"/>
<path d="M44.0898 61.123C45.238 64.1513 46.8294 69.7916 44.9963 72.2626C48.2193 73.0213 50.5292 73.5182 53.4701 75.3715C54.0476 73.2899 54.7392 70.5974 54.7392 70.5974C51.0999 70.3624 50.7507 67.7504 50.9455 65.2257L44.0898 61.123Z" fill="#EBB376"/>
<path opacity="0.2" d="M46.8821 62.7891L50.9109 65.2063C50.8606 65.7984 50.8606 66.3936 50.9109 66.9857C49.5679 67.026 47.4596 65.8711 47.0768 64.4946C46.9088 63.9426 46.8428 63.3647 46.8821 62.7891Z" fill="black"/>
<path opacity="0.5" d="M42.2559 200.229H49.9441C49.9441 200.229 59.734 167.959 60.58 159.727C61.4261 151.494 61.7282 130.854 61.7282 130.854V130.887C62.0572 131.331 64.9647 135.42 68.3086 140.16C72.6798 146.378 77.8097 153.724 78.8841 155.523C82.0601 160.821 89.8222 200.202 89.8222 200.202H97.5037C97.5037 200.202 95.5699 164.957 91.6217 153.341C87.6735 141.725 70.6049 116.357 69.8663 114.987C68.9196 113.255 66.5963 107.735 66.5963 107.735L43.5585 110.932C43.5585 110.932 43.8539 114.833 43.8808 118.244C43.9882 131.042 48.4199 148.345 48.8093 152.992C49.5681 161.862 42.2559 200.229 42.2559 200.229Z" fill="white"/>
<path d="M41.7324 72.3036L43.6461 69.9199L49.8437 71.1151L52.9928 74.7208L53.389 70.5578L54.5506 69.1611L57.0955 70.2623V72.8676L55.2825 72.2767L53.718 75.9093L48.7626 73.8748L47.6614 75.2781L41.7324 72.3036Z" fill="#0231C8"/>
<path opacity="0.9" d="M41.7324 72.3036L43.6461 69.9199L49.8437 71.1151L52.9928 74.7208L53.389 70.5578L54.5506 69.1611L57.0955 70.2623V72.8676L55.2825 72.2767L53.718 75.9093L48.7626 73.8748L47.6614 75.2781L41.7324 72.3036Z" fill="white"/>
<path opacity="0.1" d="M53.7178 75.9087L54.3154 71.5576L57.0952 72.867L55.2823 72.2761L53.7178 75.9087Z" fill="black"/>
<path opacity="0.1" d="M53.7187 75.9088L49.1259 72.5381L47.6621 75.2776L48.7633 73.8743L53.7187 75.9088Z" fill="black"/>
<path opacity="0.2" d="M61.7285 130.868V130.901C62.0575 131.344 64.965 135.434 68.3088 140.174C68.6387 137.601 68.1994 134.987 67.0463 132.663C65.8932 130.339 64.0779 128.408 61.8292 127.114L61.7285 130.868Z" fill="black"/>
<path d="M52.1674 50.4062C53.5103 51.5544 53.7117 53.5889 53.9602 54.8714C54.2086 56.1539 54.6854 57.799 52.7583 56.2748C50.8312 54.7506 48.0177 47.7002 52.1674 50.4062Z" fill="#263238"/>
<path d="M42.7322 57.947C43.9475 62.1705 43.4842 62.9896 46.1298 64.6616C50.1183 67.2198 55.584 66.676 55.4027 62.1839C55.2348 58.1215 54.0598 50.957 49.5072 50.2184C48.4918 50.0487 47.4498 50.1412 46.4802 50.4872C45.5105 50.8331 44.6453 51.4211 43.9667 52.1953C43.288 52.9694 42.8184 53.9042 42.6023 54.9108C42.3863 55.9174 42.431 56.9625 42.7322 57.947Z" fill="#EBB376"/>
<path d="M43.8148 60.7461C46.0709 60.3298 45.6143 59.4703 45.4531 59.2756C44.7212 58.4363 45.1644 56.9725 45.6009 55.0924C46.0373 53.2123 42.1764 51.7351 39.7121 52.8632C37.4359 53.9308 40.0344 61.4512 43.8148 60.7461Z" fill="#263238"/>
<path d="M41.41 61.2377C41.9821 62.0772 42.8503 62.6696 43.8406 62.8962C45.0963 63.1379 45.4857 61.8823 44.9351 60.6535C44.4382 59.5456 43.1893 58.0885 42.0277 58.4041C40.8661 58.7197 40.6714 60.1566 41.41 61.2377Z" fill="#EBB376"/>
<path d="M51.8174 56.5234C52.3236 57.3149 52.9359 58.0333 53.637 58.6587C53.4717 58.8348 53.2704 58.9733 53.0468 59.0649C52.8232 59.1564 52.5825 59.1988 52.3411 59.1891L51.8174 56.5234Z" fill="#D58745"/>
<path d="M39.3626 51.0114C40.034 49.42 47.5007 47.0498 50.6968 47.6541C50.9906 47.6745 51.2762 47.7605 51.5324 47.9056C51.7887 48.0507 52.0093 48.2513 52.178 48.4928C52.3467 48.7342 52.4592 49.0103 52.5073 49.3009C52.5554 49.5915 52.5379 49.8891 52.4561 50.172C51.4421 53.2406 48.8033 52.0521 48.8033 52.0521C48.3797 51.8558 47.9213 51.7456 47.4547 51.7279C46.9881 51.7102 46.5227 51.7854 46.0854 51.9491C45.6481 52.1127 45.2477 52.3616 44.9074 52.6813C44.5671 53.001 44.2937 53.3851 44.1031 53.8114L39.4834 53.4152C39.2594 53.0583 39.1307 52.6499 39.1096 52.229C39.0884 51.8082 39.1755 51.389 39.3626 51.0114Z" fill="#263238"/>
<path d="M48.7553 56.7986C48.8292 57.1612 49.0776 57.4097 49.3126 57.3627C49.5476 57.3157 49.6819 56.9799 49.6081 56.6173C49.5342 56.2548 49.279 56.0063 49.044 56.06C48.809 56.1138 48.6814 56.4495 48.7553 56.7986Z" fill="#263238"/>
<path d="M52.825 55.9257C52.8988 56.2883 53.154 56.5367 53.389 56.4897C53.624 56.4427 53.7516 56.1003 53.6777 55.7444C53.6039 55.3885 53.3554 55.1334 53.1204 55.1804C52.8854 55.2274 52.7511 55.5631 52.825 55.9257Z" fill="#263238"/>
<path d="M46.5397 55.8725C46.5784 55.8691 46.6156 55.8554 46.6474 55.833C46.6793 55.8106 46.7046 55.7803 46.721 55.7449C46.8295 55.4948 46.9955 55.2739 47.2055 55.1C47.4156 54.9262 47.6636 54.8044 47.9296 54.7445C47.9873 54.7361 48.0395 54.7054 48.0747 54.6589C48.1098 54.6124 48.1253 54.5539 48.1176 54.496C48.1077 54.4408 48.0773 54.3914 48.0324 54.3578C47.9876 54.3241 47.9316 54.3088 47.8759 54.3147C47.5374 54.3843 47.2205 54.5341 46.9518 54.7514C46.6831 54.9687 46.4704 55.2472 46.3315 55.5637C46.319 55.5892 46.3117 55.617 46.31 55.6454C46.3082 55.6738 46.3122 55.7022 46.3216 55.7291C46.3309 55.7559 46.3455 55.7807 46.3645 55.8018C46.3835 55.823 46.4066 55.8402 46.4323 55.8524C46.4665 55.8656 46.503 55.8724 46.5397 55.8725Z" fill="#263238"/>
<path d="M53.6041 54.2475C53.6457 54.2475 53.686 54.2333 53.7183 54.2072C53.7418 54.19 53.7616 54.1682 53.7765 54.1432C53.7913 54.1181 53.8009 54.0903 53.8047 54.0614C53.8085 54.0325 53.8063 54.0031 53.7984 53.9751C53.7905 53.9471 53.7769 53.9209 53.7586 53.8983C53.5549 53.6238 53.288 53.4023 52.9806 53.2527C52.6733 53.1031 52.3344 53.0298 51.9926 53.0388C51.9644 53.0414 51.9369 53.0495 51.9118 53.0627C51.8866 53.0759 51.8644 53.0939 51.8463 53.1158C51.8282 53.1376 51.8146 53.1628 51.8063 53.19C51.798 53.2171 51.7951 53.2456 51.7979 53.2739C51.7996 53.3018 51.8069 53.3292 51.8194 53.3542C51.8319 53.3793 51.8493 53.4016 51.8706 53.4198C51.8919 53.438 51.9167 53.4517 51.9434 53.4601C51.9702 53.4684 51.9983 53.4713 52.0262 53.4686C52.295 53.4588 52.5622 53.5149 52.8044 53.632C53.0467 53.749 53.2566 53.9234 53.4161 54.14C53.4351 54.173 53.4626 54.2003 53.4956 54.2192C53.5286 54.238 53.5661 54.2478 53.6041 54.2475Z" fill="#263238"/>
<path d="M52.1939 61.399C51.4116 61.4121 50.6385 61.2298 49.9445 60.8685C49.906 60.8448 49.8778 60.8075 49.8654 60.764C49.853 60.7206 49.8572 60.674 49.8774 60.6335C49.8998 60.5954 49.9363 60.5677 49.9791 60.5564C50.0218 60.5451 50.0673 60.5511 50.1057 60.5731C50.991 61.0035 51.9866 61.1534 52.9594 61.0028C53.003 60.995 53.0479 61.0047 53.0844 61.0298C53.1209 61.055 53.1459 61.0936 53.1541 61.1371C53.1589 61.1588 53.1593 61.1812 53.155 61.203C53.1508 61.2248 53.1421 61.2455 53.1295 61.2638C53.1169 61.2821 53.1006 61.2976 53.0817 61.3093C53.0629 61.321 53.0418 61.3287 53.0198 61.3318C52.7471 61.3794 52.4707 61.4019 52.1939 61.399Z" fill="#263238"/>
<path opacity="0.1" d="M48.0436 110.341L43.5918 110.959C43.1889 108.81 42.9673 101.377 41.5371 92.2185C43.1218 88.0017 44.6527 84.7988 44.6527 84.7988C47.7296 88.0448 50.4324 91.626 52.7102 95.4751C55.4565 100.081 52.7438 107.044 48.0436 110.341Z" fill="black"/>
<path d="M228.734 0L192.173 1.43021L195.577 6.38559L198.404 10.1525L139.604 54.2406L111.215 50.185L28.5381 112.181L31.9357 117.13L44.022 133.251L120.025 76.2578L148.414 80.3202L214.09 31.0752L220.516 39.6498L232.132 4.95538L228.734 0Z" fill="#0231C8"/>
<path opacity="0.2" d="M228.734 0L192.173 1.43021L195.577 6.38559L198.404 10.1525L139.604 54.2406L111.215 50.185L28.5381 112.181L31.9357 117.13L44.022 133.251L120.025 76.2578L148.414 80.3202L214.09 31.0752L220.516 39.6498L232.132 4.95538L228.734 0Z" fill="black"/>
<path d="M228.734 0L192.173 1.43021L198.599 10.0048L139.604 54.2406L111.215 50.185L28.5381 112.181L40.6177 128.296L116.627 71.3025L145.01 75.3648L210.685 26.1198L217.118 34.6944L228.734 0Z" fill="#0231C8"/>
<path d="M228.734 0L192.173 1.43021L198.599 10.0048L139.604 54.2406L111.215 50.185L28.5381 112.181L40.6177 128.296L116.627 71.3025L145.01 75.3648L210.685 26.1198L217.118 34.6944L228.734 0Z" fill="#0231C8"/>
<path d="M68.3094 103.203L73.8423 106.01L70.6461 110.394C70.6461 110.394 66.5032 108.971 66.3555 105.365L68.3094 103.203Z" fill="#EBB376"/>
<path d="M76.3798 109.623L73.2172 112.322L70.6455 110.395L73.8417 106.011L76.3798 109.623Z" fill="#EBB376"/>
<path d="M37.0321 73.7061C30.989 77.4595 41.0609 97.0998 42.9813 100.034C44.9016 102.968 66.3548 107.763 66.3548 107.763L69.0071 103.203L49.0647 94.3401L42.9813 79.0979C40.6177 74.2567 37.0321 73.7061 37.0321 73.7061Z" fill="#0231C8"/>
<path opacity="0.7" d="M37.0321 73.7061C30.989 77.4595 41.0609 97.0998 42.9813 100.034C44.9016 102.968 66.3548 107.763 66.3548 107.763L69.0071 103.203L49.0647 94.3401L42.9813 79.0979C40.6177 74.2567 37.0321 73.7061 37.0321 73.7061Z" fill="white"/>
<path d="M217.755 204.272L221.905 202.553L219.105 192.468L214.955 194.187L217.755 204.272Z" fill="#B55B52"/>
<path d="M221.939 195.791L214.063 199.055C214.063 199.055 207.093 173.331 200.378 160.076C196.692 152.811 190.414 141.276 184.935 131.418C182.249 126.53 179.751 122.058 177.878 118.708C175.823 115.021 174.521 112.698 174.521 112.698L187.856 103.721C187.856 103.721 205.884 139.758 211.276 152.308C217.192 166.052 221.939 195.791 221.939 195.791Z" fill="#263238"/>
<path d="M221.589 200.223H216.117C216.027 200.223 215.941 200.254 215.872 200.31C215.802 200.367 215.754 200.444 215.734 200.531L214.834 204.52C214.816 204.618 214.82 204.718 214.846 204.814C214.872 204.91 214.918 204.999 214.982 205.075C215.047 205.151 215.127 205.211 215.217 205.252C215.308 205.293 215.406 205.314 215.506 205.312C217.265 205.312 218.554 205.178 220.77 205.178C222.113 205.178 226.242 205.326 228.156 205.326C230.07 205.326 230.305 203.459 229.532 203.311C226.081 202.553 223.489 201.512 222.395 200.518C222.288 200.416 222.161 200.337 222.023 200.286C221.884 200.236 221.737 200.214 221.589 200.223Z" fill="#263238"/>
<path opacity="0.3" d="M184.961 131.419C182.276 126.53 179.778 122.058 177.904 118.708C178.9 118.574 179.913 118.772 180.785 119.272C183.225 122.881 184.667 127.072 184.961 131.419Z" fill="black"/>
<path d="M205.823 44.3569L209.18 39.1396L204.211 36.9775C204.211 36.9775 201.351 40.2878 203.05 43.4773L205.823 44.3569Z" fill="#B55B52"/>
<path d="M209.55 34.7417L205.454 34.0098L204.212 36.9709L209.181 39.1397L209.55 34.7417Z" fill="#B55B52"/>
<path d="M196.013 82.7912C205.132 75.2977 209.899 70.3288 211.726 67.3476C213.552 64.3663 206.817 43.0205 206.817 43.0205L201.566 43.2622L203.95 64.3125L195.893 70.9399L196.013 82.7912Z" fill="#263238"/>
<path opacity="0.2" d="M211.732 67.3543C210.081 70.0401 206.058 74.324 198.619 80.6223C197.791 81.3207 196.922 82.0436 196.013 82.7912L195.973 78.8833L195.893 70.9399L203.95 64.3125L201.56 43.2622L206.817 43.0205C206.817 43.0205 213.532 64.373 211.732 67.3543Z" fill="white"/>
<path opacity="0.2" d="M198.619 80.6229C197.791 81.3212 196.923 82.0441 196.014 82.7917L195.974 78.8838C196.925 79.35 197.814 79.9343 198.619 80.6229Z" fill="black"/>
<path d="M150.938 203.775L155.33 204.695L158.714 194.791L154.323 193.864L150.938 203.775Z" fill="#B55B52"/>
<path d="M183.397 104.09C183.397 104.09 177.945 144.015 175.259 157.411C172.365 172.089 159.493 199.31 159.493 199.31L151.153 197.558C151.153 197.558 159.923 172.398 161.863 157.659C164.032 141.188 167.289 103.942 167.289 103.942L183.397 104.09Z" fill="#263238"/>
<path d="M156.928 200.223H151.456C151.367 200.224 151.28 200.255 151.211 200.311C151.141 200.367 151.093 200.445 151.073 200.532L150.147 204.521C150.129 204.618 150.133 204.719 150.158 204.815C150.184 204.911 150.231 205 150.295 205.076C150.359 205.152 150.439 205.212 150.53 205.253C150.62 205.294 150.719 205.315 150.818 205.313C152.577 205.313 153.867 205.179 156.082 205.179C157.425 205.179 161.562 205.326 163.469 205.326C165.375 205.326 165.617 203.46 164.845 203.312C161.4 202.553 158.802 201.513 157.707 200.519C157.604 200.42 157.481 200.343 157.348 200.292C157.214 200.242 157.071 200.218 156.928 200.223Z" fill="#263238"/>
<path d="M192.602 103.243C197.833 84.5029 195.443 74.1087 195.443 74.1087C193.628 73.486 191.775 72.9792 189.896 72.5912C189.5 72.5039 189.097 72.4367 188.688 72.3696C185.381 71.9329 182.052 71.6885 178.716 71.6377C178.092 71.6377 177.461 71.6377 176.843 71.6377C174.831 71.7104 172.842 72.0955 170.948 72.7792C171.068 77.3565 170.832 81.9362 170.243 86.477C169.846 89.8343 170.001 93.0707 169.464 95.9714C168.953 98.7043 169.108 101.162 168.645 103.243H192.602Z" fill="#0231C8"/>
<path opacity="0.7" d="M192.602 103.243C197.833 84.5029 195.443 74.1087 195.443 74.1087C193.628 73.486 191.775 72.9792 189.896 72.5912C189.5 72.5039 189.097 72.4367 188.688 72.3696C185.381 71.9329 182.052 71.6885 178.716 71.6377C178.092 71.6377 177.461 71.6377 176.843 71.6377C174.831 71.7104 172.842 72.0955 170.948 72.7792C171.068 77.3565 170.832 81.9362 170.243 86.477C169.846 89.8343 170.001 93.0707 169.464 95.9714C168.953 98.7043 169.108 101.162 168.645 103.243H192.602Z" fill="white"/>
<path d="M186.613 78.0302C187.329 81.6861 187.725 85.3978 187.794 89.1227C187.358 90.0157 186.774 92.1913 186.25 93.0709C185.867 92.0637 185.196 89.9889 184.739 88.975C185.149 84.5971 185.921 80.246 185.686 77.916L186.613 78.0302Z" fill="#0231C8"/>
<path d="M185.613 77.2514C184.235 76.9061 182.948 76.2672 181.84 75.3783C180.732 74.4894 179.829 73.3715 179.193 72.1012C179.931 71.6938 180.546 71.0954 180.973 70.3689C181.946 68.7065 182.627 66.8897 182.987 64.9972C183.221 63.9102 183.4 62.8121 183.524 61.707L185.539 64.93L187.775 68.4552C187.439 68.9866 187.144 69.5433 186.895 70.1204C186.224 71.7454 186.257 73.3099 188.238 74.5118C188.507 75.7204 188.265 77.9967 185.613 77.2514Z" fill="#B55B52"/>
<path d="M186.337 79.4132L187.486 77.3652L186.028 76.4453L184.739 76.9825L186.337 79.4132Z" fill="#0231C8"/>
<path d="M186.003 76.4458C186.003 76.4458 184.767 77.6074 183.364 78.722C181.712 77.5134 177.878 74.3575 178.388 72.0074C178.699 71.5516 179.16 71.219 179.691 71.0674C181.493 73.187 183.624 75.003 186.003 76.4458Z" fill="white"/>
<path d="M186.002 76.4457C186.789 77.3263 187.447 78.3143 187.956 79.38C189.379 78.6615 188.869 74.0083 188.453 73.4309C187.942 72.7243 187.267 72.1528 186.485 71.7656C186.843 73.3364 186.673 74.9813 186.002 76.4457Z" fill="white"/>
<path d="M165.188 117.594L181.833 119.272L184.714 112.464L187.446 118.641L194.94 116.264L191.012 108.395C198.526 90.1308 195.867 70.9404 195.867 70.9404C192.456 71.7663 188.366 72.3169 188.366 72.3169C192.731 78.951 186.224 93.0718 186.224 93.0718C182.31 82.1673 177.63 71.632 177.63 71.632C174.673 71.7497 171.767 72.4335 169.069 73.6464C169.069 73.6464 169.861 95.9591 167.605 102.278C165.349 108.596 165.188 117.594 165.188 117.594Z" fill="#263238"/>
<path opacity="0.2" d="M191.045 108.394L194.967 116.264L187.473 118.641L184.74 112.47L181.86 119.245L165.188 117.593C165.188 117.593 165.355 108.576 167.605 102.257C168.323 100.243 168.733 96.6236 168.948 92.615C169.142 89.2577 169.196 85.6049 169.196 82.4222C169.196 77.4735 169.062 73.6328 169.062 73.6328C171.76 72.4181 174.666 71.7342 177.623 71.6184C177.623 71.6184 182.323 82.1536 186.218 93.0581C186.218 93.0581 192.731 78.9574 188.36 72.31C188.36 72.31 192.456 71.7527 195.86 70.9268C195.893 70.9402 198.559 90.1305 191.045 108.394Z" fill="white"/>
<path d="M180.208 80.6487L176.555 85.2482C176.555 85.2482 185.096 91.3585 187.601 101.511L186.708 95.582L193.724 85.7249L190.495 81.6962L194.335 78.8492C194.335 78.8492 191.032 73.2895 188.393 72.3226C192.757 78.9566 186.251 93.0774 186.251 93.0774C182.336 82.1729 177.656 71.6377 177.656 71.6377C175.467 73.4102 173.819 75.7625 172.902 78.4262L180.208 80.6487Z" fill="#263238"/>
<path opacity="0.2" d="M187.781 68.4693C187.445 69.0007 187.151 69.5574 186.902 70.1346C185.033 70.9878 182.903 71.0722 180.973 70.3696C181.946 68.7072 182.627 66.8903 182.987 64.9979C183.84 64.9375 184.713 64.9173 185.565 64.9307L187.781 68.4693Z" fill="black"/>
<path d="M179.509 55.4561C178.696 57.0474 178.414 60.539 180.939 59.8071C183.463 59.0753 180.892 52.6964 179.509 55.4561Z" fill="#263238"/>
<path d="M191.206 59.7063C190.742 64.0573 190.695 66.629 188.386 68.7509C184.921 71.9403 179.616 69.6506 178.764 65.2324C177.998 61.2641 178.884 54.8113 183.235 53.3073C184.2 52.9753 185.234 52.893 186.239 53.0683C187.244 53.2435 188.189 53.6705 188.985 54.3094C189.781 54.9482 190.402 55.7782 190.79 56.7219C191.178 57.6657 191.321 58.6924 191.206 59.7063Z" fill="#B55B52"/>
<path d="M194.57 55.7919L189.984 54.1133L189.037 56.7991L189.353 56.732C189.353 56.732 188.44 60.7205 190.252 62.7751C193.979 61.3382 196.02 57.86 194.57 55.7919Z" fill="#263238"/>
<path d="M192.716 63.42C192.528 63.9294 192.24 64.3964 191.87 64.794C191.5 65.1916 191.055 65.512 190.561 65.7365C189.218 66.3207 188.345 65.1792 188.546 63.8094C188.714 62.5739 189.607 60.7878 191.031 60.7744C191.341 60.7813 191.645 60.8645 191.915 61.0167C192.185 61.1689 192.414 61.3854 192.58 61.647C192.747 61.9086 192.846 62.2072 192.87 62.5165C192.894 62.8257 192.841 63.136 192.716 63.42Z" fill="#B55B52"/>
<path d="M184.524 60.5656C184.524 60.9215 184.303 61.2035 184.075 61.1901C183.846 61.1766 183.665 60.8745 183.678 60.5186C183.692 60.1627 183.9 59.8874 184.128 59.9009C184.357 59.9143 184.538 60.2097 184.524 60.5656Z" fill="#263238"/>
<path d="M180.503 60.3511C180.503 60.707 180.281 60.9823 180.053 60.9689C179.825 60.9555 179.644 60.66 179.657 60.2974C179.67 59.9348 179.879 59.6663 180.107 59.673C180.335 59.6797 180.516 59.9953 180.503 60.3511Z" fill="#263238"/>
<path d="M181.771 60.5928C181.286 61.6211 180.66 62.577 179.911 63.4331C180.149 63.6106 180.421 63.7359 180.71 63.8007C181 63.8655 181.299 63.8684 181.59 63.8091L181.771 60.5928Z" fill="#A02724"/>
<path d="M183.437 65.2727C183.283 65.2829 183.128 65.2829 182.974 65.2727C182.958 65.2768 182.941 65.2772 182.925 65.2738C182.909 65.2705 182.894 65.2635 182.881 65.2535C182.868 65.2435 182.858 65.2306 182.851 65.2159C182.844 65.2012 182.84 65.185 182.84 65.1686C182.84 65.1523 182.844 65.1361 182.851 65.1214C182.858 65.1067 182.868 65.0938 182.881 65.0838C182.894 65.0737 182.909 65.0668 182.925 65.0634C182.941 65.0601 182.958 65.0605 182.974 65.0646C183.415 65.0983 183.857 65.0277 184.265 64.8585C184.674 64.6894 185.036 64.4264 185.324 64.0909C185.344 64.072 185.37 64.0615 185.398 64.0615C185.425 64.0615 185.452 64.072 185.472 64.0909C185.491 64.1109 185.501 64.1373 185.501 64.1648C185.501 64.1923 185.491 64.2187 185.472 64.2387C185.221 64.5402 184.911 64.7874 184.561 64.9652C184.211 65.143 183.829 65.2476 183.437 65.2727Z" fill="#263238"/>
<path d="M185.821 59.3373C185.783 59.3402 185.745 59.3331 185.711 59.3166C185.676 59.3001 185.647 59.2748 185.626 59.2433C185.485 59.022 185.293 58.8373 185.067 58.7043C184.84 58.5713 184.585 58.4937 184.323 58.4778C184.268 58.4779 184.214 58.4561 184.174 58.4173C184.134 58.3784 184.11 58.3255 184.109 58.2697C184.108 58.2427 184.112 58.2157 184.122 58.1905C184.132 58.1653 184.146 58.1423 184.165 58.1229C184.184 58.1035 184.206 58.088 184.231 58.0775C184.256 58.0669 184.283 58.0615 184.31 58.0615C184.648 58.0703 184.98 58.1618 185.274 58.328C185.569 58.4942 185.819 58.7301 186.002 59.015C186.033 59.0604 186.045 59.1163 186.035 59.1704C186.025 59.2246 185.994 59.2725 185.948 59.3037C185.911 59.3289 185.866 59.3407 185.821 59.3373Z" fill="#263238"/>
<path d="M178.831 58.8737C178.791 58.8831 178.75 58.8831 178.71 58.8737C178.662 58.8469 178.627 58.8022 178.612 58.7493C178.596 58.6965 178.603 58.6398 178.629 58.5917C178.781 58.298 179.001 58.0451 179.271 57.8546C179.541 57.6641 179.853 57.5415 180.18 57.4972C180.236 57.4951 180.29 57.514 180.333 57.5501C180.375 57.5861 180.402 57.6368 180.409 57.692C180.411 57.7193 180.407 57.7467 180.398 57.7727C180.389 57.7986 180.375 57.8226 180.357 57.8432C180.339 57.8638 180.317 57.8806 180.293 57.8927C180.268 57.9047 180.241 57.9118 180.214 57.9135C179.955 57.9495 179.709 58.0485 179.497 58.2019C179.285 58.3552 179.114 58.5583 178.999 58.7932C178.978 58.8173 178.952 58.8369 178.923 58.8508C178.894 58.8646 178.863 58.8724 178.831 58.8737Z" fill="#263238"/>
<path d="M190.48 58.1416C190.369 58.1884 190.255 58.2266 190.138 58.2558C189.818 58.335 189.484 58.3322 189.166 58.2477C188.848 58.1631 188.556 57.9996 188.318 57.7723C187.344 56.8457 188.016 53.4414 184.188 54.1129C183.854 53.9147 183.469 53.8174 183.081 53.8329C182.693 53.8484 182.317 53.9759 181.999 54.2002C180.831 54.9723 180.247 58.9407 178.602 57.8596C176.957 56.7786 177.44 56.3152 177.44 56.3152C177.44 56.3152 177.85 56.792 178.226 56.6308C178.037 56.3247 177.945 55.9685 177.961 55.6091C177.978 55.2497 178.103 54.9037 178.32 54.6165C178.32 54.6165 178.602 55.2879 178.924 55.2879C179.096 53.6637 179.762 52.1313 180.831 50.8966C182.684 48.6136 188.889 51.1786 188.889 51.1786C188.889 51.1786 190.117 50.0841 192.723 51.9239C195.328 53.7637 195.563 57.6582 194.636 59.0414" fill="#263238"/>
<path opacity="0.2" d="M171.592 82.7912C171.592 82.7912 171.451 89.0022 168.98 92.6147C169.175 89.2574 169.229 85.6046 169.229 82.4219C170.035 82.2506 170.877 82.3821 171.592 82.7912Z" fill="black"/>
<path d="M145.963 81.5291L139.812 80.7099L141.377 75.5195C141.377 75.5195 145.755 75.5195 147.091 78.8768L145.963 81.5291Z" fill="#B55B52"/>
<path d="M136.22 78.145L138.315 74.5527L141.377 75.5196L139.812 80.7167L136.22 78.145Z" fill="#B55B52"/>
<path d="M172.902 82.7915C172.902 82.7915 163.757 95.9992 160.393 96.9527C157.029 97.9061 143.7 81.6433 143.7 81.6433L146.702 77.3191L158.929 88.0021C158.929 88.0021 165.294 76.4529 169.122 73.6328L172.902 82.7915Z" fill="#263238"/>
<path opacity="0.2" d="M172.902 82.7915C172.902 82.7915 163.757 95.9992 160.393 96.9527C157.029 97.9061 143.7 81.6433 143.7 81.6433L146.702 77.3191L158.929 88.0021C158.929 88.0021 165.294 76.4529 169.122 73.6328L172.902 82.7915Z" fill="white"/>
</svg>
