<svg width="24" height="26" viewBox="0 0 24 26" fill="none" xmlns="http://www.w3.org/2000/svg">
<path d="M12 -9.78923e-05C7.8645 -9.78923e-05 4.5 3.1397 4.5 6.999V9.20215H3C2.20435 9.20215 1.44129 9.49711 0.87868 10.0221C0.31607 10.5472 0 11.2593 0 12.0018V23.2004C0 23.9429 0.31607 24.655 0.87868 25.18C1.44129 25.705 2.20435 26 3 26H21C21.7956 26 22.5587 25.705 23.1213 25.18C23.6839 24.655 24 23.9429 24 23.2004V12.0018C24 11.2593 23.6839 10.5472 23.1213 10.0221C22.5587 9.49711 21.7956 9.20215 21 9.20215H19.5V6.999C19.5 3.1397 16.1355 -9.78923e-05 12 -9.78923e-05ZM7.5 6.999C7.5 4.6837 9.519 2.79954 12 2.79954C14.481 2.79954 16.5 4.6837 16.5 6.999V9.20215H7.5V6.999ZM13.5 20.013V23.2004H10.5V20.013C9.97558 19.7327 9.55449 19.3107 9.29224 18.8026C9.03 18.2945 8.93893 17.7242 9.03103 17.1668C9.12313 16.6094 9.39407 16.0912 9.80815 15.6804C10.2222 15.2697 10.76 14.9856 11.3505 14.8658C11.7891 14.7753 12.2439 14.7778 12.6814 14.8732C13.1188 14.9686 13.5277 15.1544 13.878 15.4169C14.2282 15.6794 14.5109 16.0119 14.7051 16.39C14.8993 16.768 15 17.1819 15 17.6011C14.9991 18.0907 14.86 18.5714 14.5967 18.9948C14.3334 19.4182 13.9551 19.7694 13.5 20.013Z" fill="#8EA0B1"/>
</svg>
